<svg width="5236" height="6046" viewBox="0 0 5236 6046" fill="none" xmlns="http://www.w3.org/2000/svg">
<mask id="path-1-outside-1_33_57" maskUnits="userSpaceOnUse" x="0" y="-0.000976562" width="5236" height="6046" fill="black">
<rect fill="white" y="-0.000976562" width="5236" height="6046"/>
<path d="M2618 3023.57L5235 1513V4534.14L2618 3023.57Z"/>
<path d="M1 4534.53L2618 3023.96V6045.1L1 4534.53Z"/>
<path d="M1 1512.57L2618 1.99959V3023.14L1 1512.57Z"/>
<path d="M2618 3023.57L1.00006 4534.14V1513L2618 3023.57Z"/>
<path d="M5235 4534.57L2618 6045.14V3024L5235 4534.57Z"/>
<path d="M5235 1512.07L2618 3023.14V0.999023L5235 1512.07Z"/>
</mask>
<path d="M2618 3023.57L5235 1513V4534.14L2618 3023.57Z" fill="#00B2ED"/>
<path d="M1 4534.53L2618 3023.96V6045.1L1 4534.53Z" fill="#009EDF"/>
<path d="M1 1512.57L2618 1.99959V3023.14L1 1512.57Z" fill="#0062A4"/>
<path d="M2618 3023.57L1.00006 4534.14V1513L2618 3023.57Z" fill="#006FC0"/>
<path d="M5235 4534.57L2618 6045.14V3024L5235 4534.57Z" fill="#00D4FF"/>
<path d="M5235 1512.07L2618 3023.14V0.999023L5235 1512.07Z" fill="#009BDB"/>
<path d="M5235 1513H5235.2V1512.65L5234.9 1512.83L5235 1513ZM5235 4534.14L5234.9 4534.31L5235.2 4534.48V4534.14H5235ZM1 4534.53L0.900018 4534.36L0.599929 4534.53L0.900018 4534.7L1 4534.53ZM2618 3023.96H2618.2V3023.62L2617.9 3023.79L2618 3023.96ZM2618 6045.1L2617.9 6045.27L2618.2 6045.45V6045.1H2618ZM1 1512.57L0.900018 1512.4L0.599929 1512.57L0.900018 1512.74L1 1512.57ZM2618 1.99959H2618.2V1.65322L2617.9 1.82637L2618 1.99959ZM2618 3023.14L2617.9 3023.31L2618 3023.37L2618.1 3023.31L2618 3023.14ZM1.00006 4534.14H0.800057V4534.48L1.10004 4534.31L1.00006 4534.14ZM1.00006 1513L1.10004 1512.83L0.800057 1512.65V1513H1.00006ZM5235 4534.57L5235.1 4534.74L5235.4 4534.57L5235.1 4534.39L5235 4534.57ZM2618 6045.14H2617.8V6045.48L2618.1 6045.31L2618 6045.14ZM2618 3024L2618.1 3023.83L2617.8 3023.65V3024H2618ZM5235 1512.07L5235.1 1512.24L5235.4 1512.07L5235.1 1511.89L5235 1512.07ZM2618 0.999023L2618.1 0.825822L2617.8 0.652597V0.999023H2618ZM2618.1 3023.74L5235.1 1513.17L5234.9 1512.83L2617.9 3023.39L2618.1 3023.74ZM5234.8 1513V4534.14H5235.2V1513H5234.8ZM5235.1 4533.96L2618.1 3023.39L2617.9 3023.74L5234.9 4534.31L5235.1 4533.96ZM1.09998 4534.7L2618.1 3024.14L2617.9 3023.79L0.900018 4534.36L1.09998 4534.7ZM2617.8 3023.96V6045.1H2618.2V3023.96H2617.8ZM2618.1 6044.93L1.09998 4534.36L0.900018 4534.7L2617.9 6045.27L2618.1 6044.93ZM1.09998 1512.74L2618.1 2.1728L2617.9 1.82637L0.900018 1512.4L1.09998 1512.74ZM2617.8 1.99959V3023.14H2618.2V1.99959H2617.8ZM2618.1 3022.96L1.09998 1512.4L0.900018 1512.74L2617.9 3023.31L2618.1 3022.96ZM2617.9 3023.39L0.900074 4533.96L1.10004 4534.31L2618.1 3023.74L2617.9 3023.39ZM1.20006 4534.14V1513H0.800057V4534.14H1.20006ZM0.900074 1513.17L2617.9 3023.74L2618.1 3023.39L1.10004 1512.83L0.900074 1513.17ZM5234.9 4534.39L2617.9 6044.96L2618.1 6045.31L5235.1 4534.74L5234.9 4534.39ZM2618.2 6045.14V3024H2617.8V6045.14H2618.2ZM2617.9 3024.17L5234.9 4534.74L5235.1 4534.39L2618.1 3023.83L2617.9 3024.17ZM5234.9 1511.89L2617.9 3022.96L2618.1 3023.31L5235.1 1512.24L5234.9 1511.89ZM2618.2 3023.14V0.999023H2617.8V3023.14H2618.2ZM2617.9 1.17222L5234.9 1512.24L5235.1 1511.89L2618.1 0.825822L2617.9 1.17222Z" fill="#009BDB" mask="url(#path-1-outside-1_33_57)"/>
</svg>
