<svg width="335" height="376" viewBox="0 0 335 376" fill="none" xmlns="http://www.w3.org/2000/svg">
<path d="M52.6775 211.105C45.5434 232.929 44.4383 258.814 59.0353 276.531C73.6323 294.248 103.459 303.268 126.243 300.426C136.366 299.177 146.111 295.686 156.281 294.629C166.451 293.572 177.696 295.465 184.488 303.089C192.402 312.007 191.38 326.6 184.146 336.077C176.913 345.554 164.877 350.382 153.004 351.474C141.131 352.566 129.236 350.395 117.517 348.222C133.028 356.908 151.563 360.977 168.982 357.371C186.401 353.766 202.446 341.884 209.039 325.341C215.631 308.799 211.497 287.992 197.731 276.637C189.388 269.761 182.942 263.98 170.714 260.216C160.382 257.035 150.17 256.388 139.492 254.693C125.882 252.532 116.191 251.355 108.933 234.997L104.501 218.448L52.6775 211.105Z" fill="#407BFF"/>
<g opacity="0.3">
<path d="M52.6775 211.105C45.5434 232.929 44.4383 258.814 59.0353 276.531C73.6323 294.248 103.459 303.268 126.243 300.426C136.366 299.177 146.111 295.686 156.281 294.629C166.451 293.572 177.696 295.465 184.488 303.089C192.402 312.007 191.38 326.6 184.146 336.077C176.913 345.554 164.877 350.382 153.004 351.474C141.131 352.566 129.236 350.395 117.517 348.222C133.028 356.908 151.563 360.977 168.982 357.371C186.401 353.766 202.446 341.884 209.039 325.341C215.631 308.799 211.497 287.992 197.731 276.637C189.388 269.761 182.942 263.98 170.714 260.216C160.382 257.035 150.17 256.388 139.492 254.693C125.882 252.532 116.191 251.355 108.933 234.997L104.501 218.448L52.6775 211.105Z" fill="black"/>
</g>
<path d="M173.165 291.734C172.315 291.651 171.472 291.51 170.642 291.311C169.084 291.05 166.942 290.69 164.565 290.396C162.189 290.102 160.001 290.015 158.425 289.959C157.574 289.967 156.722 289.926 155.876 289.836C156.72 289.692 157.577 289.637 158.433 289.672C162.563 289.637 166.682 290.094 170.704 291.033C171.545 291.187 172.369 291.421 173.165 291.734Z" fill="white"/>
<path d="M188.698 301.384C188.422 300.568 188.008 299.806 187.475 299.129C186.855 298.537 186.141 298.052 185.361 297.694C185.369 297.647 185.677 297.627 186.148 297.778C186.773 297.996 187.333 298.37 187.774 298.864C188.215 299.358 188.523 299.957 188.669 300.603C188.829 301.078 188.777 301.39 188.698 301.384Z" fill="white"/>
<path d="M52.4858 139.466L23.0579 168.706C20.9896 170.761 19.7683 173.517 19.6359 176.429C19.5035 179.342 20.4696 182.198 22.3429 184.432L42.1064 208.011L50.8763 199.593L39.4708 177.359L56.8083 164.211L52.4858 139.466Z" fill="#B78876"/>
<path d="M35.2722 200.251L46.8684 191.787L50.8763 199.593L42.1064 208.011L35.2722 200.251Z" fill="#407BFF"/>
<path d="M96.4251 135.855C97.1882 136.079 98.2227 136.356 99.4816 136.728L99.7308 136.769C104.55 138.223 108.632 141.463 111.142 145.826C113.652 150.19 114.401 155.347 113.234 160.244L109.531 176.174C109.531 176.174 103.785 203.659 103.656 203.526L104.627 223.234L51.2667 215.985L55.8743 197.004L50.9925 185.384L54.618 165.718L50.3817 143.036C52.9313 137.859 59.7972 132.869 68.2125 132.678C70.8817 132.613 73.5618 132.102 76.6278 132.488C79.0701 135.143 82.3186 136.922 85.8719 137.548C89.4251 138.174 93.0857 137.613 96.2887 135.952L96.4251 135.855Z" fill="#B78876"/>
<path d="M54.9887 195.983L54.9053 198.963L73.2625 202.754L73.724 149.664L54.9887 195.983Z" fill="#AA6550"/>
<path d="M75.783 132.082L71.0132 199.406L49.3645 194.807L54.0822 166.669C54.0822 166.669 65.9075 149.435 52.371 139.959C52.371 139.959 55.633 133.684 60.9496 133.254L75.783 132.082Z" fill="#407BFF"/>
<path d="M96.0523 149.733C96.0658 149.222 91.8279 202.151 91.8279 202.151C91.7957 202.379 91.8137 202.611 91.8806 202.831C91.9474 203.051 92.0615 203.254 92.2148 203.425C92.4646 203.593 92.7573 203.687 93.0584 203.694L102.993 204.856L103.893 201.059C103.237 200.823 102.634 200.458 102.121 199.985C101.607 199.513 101.193 198.943 100.904 198.308C100.328 197.039 99.928 195.698 99.7144 194.321C97.1431 181.671 94.5645 168.636 96.9175 155.939" fill="#AA6550"/>
<path d="M96.4254 135.855L94.6286 200.298L109.854 202.851L110.859 145.281C110.859 145.281 107.891 137.241 96.4254 135.855Z" fill="#407BFF"/>
<path d="M51.1797 216.074L105.703 222.933L104.023 208.88L54.3117 200.545L51.1797 216.074Z" fill="#407BFF"/>
<path d="M50.8763 199.593L59.636 197.683C59.9523 197.68 60.2653 197.747 60.5531 197.878C60.8409 198.009 61.0965 198.202 61.3022 198.442C62.822 200.218 66.4774 204.635 67.5668 207.067C68.6563 209.5 66.3459 210.434 65.7262 209.497C58.8451 199.247 58.2949 204.44 58.2949 204.44C58.2949 204.44 64.5663 211.497 63.5697 212.378C62.5731 213.26 62.1275 213.578 60.8682 212.254C59.4442 210.766 55.6155 206.953 55.6155 206.953C55.6155 206.953 60.1337 211.954 60.527 213.382C60.592 213.644 60.5791 213.92 60.4898 214.175C60.4004 214.43 60.2385 214.654 60.0239 214.819C59.8093 214.983 59.5513 215.082 59.2816 215.102C59.0119 215.122 58.7421 215.063 58.5054 214.932C57.5063 214.396 51.7909 208.274 51.7909 208.274C51.7909 208.274 48.0476 211.497 46.0075 212.108C43.9674 212.719 42.0883 207.976 42.0883 207.976L50.8763 199.593Z" fill="#B78876"/>
<path d="M51.1281 199.619L51.3216 199.563L51.8904 199.419L54.1056 198.909L57.6064 198.135C58.3024 197.995 58.9997 197.8 59.8164 197.705C60.0397 197.674 60.2672 197.699 60.4789 197.776C60.6906 197.853 60.8802 197.981 61.0311 198.149C61.3216 198.47 61.5693 198.807 61.8558 199.152L65.4761 203.634C66.1387 204.458 66.8066 205.25 67.4548 206.16C67.8038 206.636 68.0403 207.184 68.1465 207.765C68.1938 208.076 68.1748 208.394 68.0908 208.697C68.0069 209 67.8598 209.282 67.6593 209.525C67.4338 209.792 67.1199 209.97 66.7747 210.025C66.6008 210.039 66.426 210.017 66.2606 209.962C66.0952 209.907 65.9425 209.819 65.8117 209.704C65.3406 209.299 64.9176 208.841 64.5511 208.339C63.7705 207.408 63.1134 206.313 62.3393 205.342C61.9353 204.856 61.4691 204.425 60.9527 204.061C60.6958 203.882 60.4251 203.724 60.1431 203.589C60.0212 203.513 59.8852 203.463 59.7434 203.442C59.5991 203.425 59.4534 203.428 59.3097 203.449C59.0319 203.482 58.7163 203.598 58.6214 203.782C58.5733 203.907 58.554 204.041 58.5649 204.175C58.5757 204.308 58.6165 204.438 58.6842 204.553C59.0007 205.118 59.3795 205.647 59.8135 206.128C61.0363 207.338 62.1586 208.645 63.1695 210.037C63.396 210.4 63.5836 210.786 63.7292 211.188C63.8205 211.403 63.866 211.635 63.8626 211.869C63.8593 212.103 63.8072 212.333 63.7097 212.546C63.5862 212.745 63.4177 212.912 63.2178 213.035C63.018 213.157 62.7923 213.231 62.5588 213.25C62.1246 213.285 61.6883 213.212 61.2894 213.037L55.6674 207.026L55.9402 206.783C56.9136 208.014 57.8264 209.192 58.6787 210.317C59.1039 210.885 59.5149 211.442 59.9026 211.996C60.338 212.509 60.6604 213.109 60.8486 213.756C60.8798 213.932 60.8681 214.113 60.8143 214.284C60.7606 214.455 60.6665 214.61 60.5399 214.737C60.305 214.963 59.9989 215.102 59.6736 215.128C59.064 215.149 58.4681 214.944 58.0008 214.551C57.2187 213.903 56.4889 213.195 55.8179 212.432C55.5158 212.128 55.198 211.839 54.8659 211.568C54.5757 211.313 54.3092 211.032 54.0696 210.73C53.6092 210.18 53.2306 209.716 52.9077 209.35C52.5848 208.983 52.3176 208.714 52.1308 208.539C52.0323 208.458 51.9399 208.371 51.8546 208.276C51.9701 208.334 52.0763 208.408 52.1698 208.497C52.4589 208.738 52.7339 208.996 52.9934 209.268C53.3332 209.629 53.7287 210.088 54.1917 210.622C54.4341 210.909 54.7001 211.176 54.9867 211.42C55.3318 211.687 55.6606 211.975 55.9713 212.281C56.6457 213.019 57.3735 213.706 58.149 214.336C58.5725 214.69 59.1135 214.872 59.6648 214.846C59.9347 214.837 60.1918 214.729 60.3882 214.543C60.4898 214.447 60.564 214.326 60.6033 214.192C60.6427 214.058 60.6458 213.916 60.6123 213.78C60.4273 213.175 60.1208 212.614 59.7116 212.132C59.3213 211.594 58.9026 211.035 58.476 210.475C57.5977 209.346 56.681 208.175 55.7258 206.964L55.9974 206.729L61.6143 212.627L61.5442 212.615C61.8794 212.763 62.2462 212.825 62.6112 212.794C62.7808 212.782 62.9453 212.73 63.0917 212.643C63.2382 212.557 63.3627 212.438 63.4555 212.295C63.7664 211.683 63.3024 210.868 62.9188 210.195C61.9335 208.83 60.8426 207.544 59.6562 206.35C59.1965 205.836 58.7968 205.272 58.4647 204.668C58.3707 204.495 58.318 204.302 58.3107 204.105C58.3035 203.908 58.3419 203.712 58.423 203.532C58.5378 203.374 58.6868 203.243 58.8591 203.15C59.0313 203.057 59.2223 203.004 59.4179 202.995C59.5986 202.968 59.7821 202.967 59.9632 202.99C60.1471 203.021 60.3237 203.085 60.4836 203.181C60.786 203.321 61.0741 203.49 61.3438 203.686C61.8792 204.067 62.3582 204.522 62.7667 205.037C63.5745 206.046 64.2213 207.107 64.9773 208.042C65.3222 208.517 65.7193 208.952 66.1613 209.338C66.3442 209.505 66.582 209.599 66.8296 209.602C67.0748 209.547 67.2946 209.412 67.4544 209.218C67.6214 209.017 67.7444 208.784 67.8155 208.532C67.8867 208.281 67.9043 208.017 67.8674 207.758C67.7687 207.234 67.5535 206.738 67.2379 206.308C66.5896 205.398 65.9218 204.606 65.2592 203.782L61.6766 199.266C61.4043 198.932 61.145 198.568 60.8817 198.276C60.7613 198.134 60.6069 198.026 60.433 197.96C60.2592 197.894 60.0715 197.874 59.8876 197.901C59.1346 197.999 58.3814 198.193 57.701 198.335L54.1795 199.042L51.9539 199.469L51.3761 199.573C51.2974 199.605 51.2131 199.62 51.1281 199.619Z" fill="#AA6550"/>
<path d="M42.2447 205.896C41.4199 205.119 40.6899 204.247 40.0701 203.298C39.3438 202.428 38.7241 201.475 38.2241 200.458C39.0544 201.23 39.7849 202.103 40.3987 203.057C41.1282 203.924 41.7482 204.878 42.2447 205.896Z" fill="white"/>
<path d="M172.029 158.099C176.96 152.856 180.875 148.324 183.833 141.758C184.036 141.17 184.378 140.639 184.829 140.212C185.061 140.004 185.359 139.887 185.67 139.88C185.981 139.873 186.284 139.978 186.525 140.176C187.023 140.691 186.784 141.54 186.512 142.207C185.638 144.367 184.459 146.667 183.582 148.842C184.803 147.005 186.872 143.549 188.084 141.718C188.377 141.194 188.784 140.743 189.274 140.396C189.52 140.225 189.814 140.136 190.113 140.141C190.413 140.147 190.703 140.247 190.942 140.428C191.639 141.049 191.23 142.149 190.807 142.951C189.903 144.665 187.714 148.414 186.819 150.122C187.92 148.665 189.531 146.172 190.633 144.708C191.208 143.955 192.079 143.101 192.95 143.495C193.242 143.648 193.475 143.894 193.611 144.193C193.748 144.493 193.781 144.83 193.706 145.151C193.546 145.792 193.24 146.387 192.813 146.891C192.022 147.983 192.018 148.055 191.226 149.147L189.244 151.849C189.244 151.849 190.902 150.838 191.735 152.083C192.144 152.696 191.636 153.531 191.242 154.162C190.185 156.234 188.996 158.235 187.683 160.155C185.408 163.169 182.777 164.057 182.756 163.845L179.922 166.997L172.029 158.099Z" fill="#B78876"/>
<path d="M189.473 151.816C188.485 153.155 187.505 154.499 186.532 155.846C186.265 156.165 186.058 156.529 185.919 156.921C185.85 157.116 185.831 157.326 185.862 157.531C185.893 157.736 185.974 157.93 186.098 158.096C186.249 158.248 186.438 158.358 186.645 158.414C186.853 158.47 187.071 158.47 187.278 158.414C187.7 158.313 188.086 158.102 188.398 157.801C188.788 157.434 190.726 154.708 190.969 154.404" fill="#B78876"/>
<path d="M191.001 154.402C190.693 155.028 190.325 155.624 189.903 156.179C189.481 156.825 189.014 157.439 188.505 158.019C188.142 158.35 187.691 158.569 187.206 158.65C186.94 158.677 186.671 158.632 186.428 158.519C186.292 158.462 186.169 158.378 186.066 158.273C185.962 158.167 185.881 158.043 185.826 157.906C185.739 157.646 185.713 157.37 185.749 157.099C185.785 156.827 185.882 156.568 186.033 156.339C186.289 155.91 186.569 155.573 186.82 155.222C187.322 154.57 187.776 153.965 188.197 153.411C188.595 152.832 189.05 152.294 189.555 151.805C189.247 152.435 188.879 153.033 188.455 153.591L187.15 155.454C186.907 155.805 186.622 156.166 186.407 156.538C186.286 156.71 186.205 156.907 186.17 157.115C186.135 157.323 186.147 157.535 186.206 157.738C186.294 157.916 186.437 158.061 186.615 158.15C186.792 158.239 186.994 158.267 187.189 158.231C187.592 158.164 187.969 157.986 188.276 157.716C188.836 157.146 189.284 156.476 189.695 155.984C190.074 155.413 190.512 154.883 191.001 154.402Z" fill="#AA6550"/>
<path d="M173.367 158.051C173.71 158.409 174.157 158.65 174.645 158.74C175.132 158.831 175.636 158.766 176.085 158.555C177.016 158.207 177.798 157.553 178.723 157.148C181.405 155.908 184.764 156.935 187.386 155.573C187.754 155.387 188.149 155.037 188.04 154.634C187.931 154.232 187.49 154.142 187.107 154.085L177.43 152.535" fill="#B78876"/>
<path d="M177.411 152.508C177.766 152.478 178.124 152.498 178.474 152.566C179.158 152.64 180.137 152.773 181.343 152.935L185.586 153.558L186.809 153.763C187.319 153.763 187.808 153.963 188.173 154.32C188.269 154.456 188.319 154.619 188.317 154.785C188.315 154.952 188.261 155.113 188.161 155.247C188.005 155.469 187.799 155.651 187.56 155.779C187.133 156.005 186.681 156.182 186.214 156.306C184.324 156.789 182.521 156.607 180.957 156.81C180.218 156.875 179.493 157.056 178.81 157.346C178.18 157.617 177.627 157.997 177.051 158.284C176.632 158.567 176.157 158.755 175.658 158.835C175.159 158.915 174.649 158.884 174.163 158.745C173.479 158.478 173.312 158.042 173.336 158.046C173.602 158.262 173.905 158.43 174.23 158.54C174.685 158.627 175.153 158.619 175.604 158.515C176.056 158.412 176.481 158.216 176.853 157.939C177.367 157.641 177.915 157.236 178.585 156.916C179.307 156.592 180.074 156.38 180.86 156.289C182.5 156.059 184.293 156.208 186.034 155.755C186.459 155.648 186.87 155.491 187.258 155.288C187.618 155.1 187.831 154.783 187.682 154.622C187.532 154.461 187.111 154.35 186.689 154.287L185.474 154.084L181.245 153.375C180.038 153.172 179.071 152.97 178.397 152.833C178.056 152.768 177.724 152.659 177.411 152.508Z" fill="#AA6550"/>
<path d="M110.941 144.79L139.962 173.805L172.235 158.021L180.467 166.608C180.467 166.608 150.797 195.143 137.596 196.613C135.541 196.481 133.537 195.916 131.716 194.955C128.824 193.389 109.283 177.653 109.283 177.653L110.941 144.79Z" fill="#B78876"/>
<path d="M172.203 158.016L180.432 166.626L175.287 171.384L165.375 161.347L172.203 158.016Z" fill="#407BFF"/>
<path d="M172.192 158.655C171.388 159.42 170.486 160.076 169.511 160.607C168.733 161.094 168.016 161.502 167.467 161.77C167.253 161.877 167.031 161.969 166.804 162.043C166.735 162.064 166.663 162.074 166.591 162.072C166.513 162.059 166.517 161.987 166.539 161.999C166.561 162.011 167.751 161.217 169.297 160.259C170.198 159.617 171.17 159.078 172.192 158.655Z" fill="white"/>
<path d="M182.765 138.961C180.97 137.937 179.247 136.795 177.605 135.541C175.881 134.4 174.235 133.145 172.678 131.785C174.471 132.809 176.195 133.952 177.838 135.204C179.561 136.347 181.207 137.602 182.765 138.961Z" fill="#263238"/>
<path d="M187.725 137.078C187.615 137.108 186.412 133.159 185.031 128.259C183.651 123.359 182.625 119.352 182.734 119.322C182.844 119.293 184.047 123.242 185.428 128.141C186.808 133.041 187.834 137.048 187.725 137.078Z" fill="#263238"/>
<path d="M197.839 123.889C197.093 125.973 196.217 128.008 195.216 129.982C194.33 132.009 193.32 133.979 192.193 135.881C192.939 133.8 193.815 131.767 194.815 129.795C195.702 127.767 196.712 125.794 197.839 123.889Z" fill="#263238"/>
<path d="M201.747 136.779C200.885 137.38 199.99 137.933 199.067 138.435C198.201 139.051 197.303 139.622 196.378 140.146C197.043 139.301 197.872 138.598 198.814 138.08C199.691 137.448 200.69 137.005 201.747 136.779Z" fill="#263238"/>
<path d="M77.5924 107.011C76.1838 107.029 74.795 106.677 73.5642 105.992C72.3334 105.307 71.3034 104.311 70.5767 103.104C69.0954 100.598 68.4482 97.6855 68.7283 94.7874C68.9993 91.7309 69.8978 88.7632 71.3675 86.0696C72.8372 83.376 74.8466 81.0145 77.2702 79.1325C82.0579 75.4936 87.8791 73.4719 93.8917 73.3598C98.4935 73.1146 103.08 74.0739 107.197 76.143C111.381 78.299 114.632 81.9113 116.336 86.2988C117.587 89.9431 117.838 93.8562 117.062 97.6305C116.439 101.017 115.129 104.385 112.71 106.781C110.29 109.178 106.72 110.461 103.586 109.431" fill="#407BFF"/>
<path d="M75.4486 140.954L95.5208 143.398L97.1379 127.735C97.1379 127.735 105.018 127.823 106.415 120.163C107.811 112.502 109.423 94.628 109.423 94.628C105.37 92.0207 100.696 90.5419 95.8816 90.3442C91.0672 90.1465 86.2872 91.237 82.035 93.5033L80.7426 94.1914L75.4486 140.954Z" fill="#B78876"/>
<path d="M97.1681 127.604C93.6105 127.072 90.291 125.496 87.6305 123.074C87.6305 123.074 89.0398 128.996 96.8507 129.593L97.1681 127.604Z" fill="#AA6550"/>
<path d="M80.3466 102.284C80.2247 102.2 75.3275 99.8412 74.6187 105.119C73.91 110.397 79.3538 110.021 79.3786 109.873C79.4034 109.725 80.3466 102.284 80.3466 102.284Z" fill="#B78876"/>
<path d="M78.0397 107.638C78.0397 107.638 77.9422 107.694 77.7747 107.738C77.5401 107.792 77.2936 107.751 77.0894 107.623C76.7786 107.36 76.5435 107.018 76.4082 106.634C76.2728 106.25 76.242 105.836 76.319 105.436C76.365 104.982 76.5123 104.545 76.75 104.155C76.8229 103.997 76.9329 103.859 77.0706 103.752C77.2084 103.646 77.3698 103.574 77.5412 103.543C77.6501 103.531 77.7601 103.556 77.8524 103.615C77.9447 103.675 78.0135 103.764 78.0472 103.868C78.1003 104.029 78.0521 104.125 78.0742 104.137C78.0963 104.149 78.1976 104.07 78.1874 103.844C78.1786 103.709 78.12 103.582 78.0229 103.488C77.895 103.357 77.7206 103.282 77.5376 103.278C77.3144 103.294 77.0989 103.366 76.9107 103.487C76.7225 103.608 76.5678 103.774 76.4607 103.971C76.1767 104.398 76.0012 104.888 75.9491 105.398C75.8533 105.864 75.9002 106.349 76.0836 106.788C76.267 107.227 76.5785 107.601 76.9775 107.861C77.1139 107.92 77.2617 107.949 77.4105 107.945C77.5593 107.941 77.7054 107.904 77.8382 107.837C78.0162 107.779 78.063 107.642 78.0397 107.638Z" fill="#AA6550"/>
<path d="M104.626 106.043C104.583 106.329 104.429 106.586 104.198 106.76C103.966 106.934 103.676 107.01 103.39 106.972C103.248 106.96 103.109 106.92 102.983 106.854C102.857 106.788 102.745 106.697 102.655 106.587C102.564 106.477 102.497 106.35 102.456 106.214C102.416 106.077 102.403 105.934 102.418 105.793C102.466 105.507 102.622 105.251 102.854 105.078C103.086 104.905 103.376 104.828 103.663 104.864C103.805 104.876 103.942 104.916 104.068 104.982C104.194 105.048 104.305 105.139 104.395 105.249C104.485 105.359 104.551 105.486 104.591 105.622C104.631 105.759 104.643 105.902 104.626 106.043Z" fill="#263238"/>
<path d="M106.154 105.146C105.99 105.262 105.268 104.509 104.083 104.318C102.898 104.127 101.935 104.567 101.836 104.398C101.736 104.229 101.967 104.091 102.387 103.881C102.956 103.615 103.594 103.529 104.213 103.635C104.83 103.733 105.399 104.028 105.834 104.476C106.149 104.841 106.216 105.156 106.154 105.146Z" fill="#263238"/>
<path d="M93.0467 104.237C92.9938 104.518 92.8361 104.767 92.6056 104.935C92.3751 105.104 92.0891 105.178 91.806 105.142C91.6649 105.129 91.5277 105.089 91.4025 105.022C91.2773 104.956 91.1666 104.865 91.0769 104.755C90.9872 104.646 90.9202 104.519 90.88 104.383C90.8398 104.247 90.8271 104.105 90.8426 103.964C90.8865 103.676 91.0415 103.416 91.2745 103.241C91.5074 103.066 91.7996 102.99 92.0885 103.028C92.2321 103.041 92.3716 103.083 92.4985 103.152C92.6254 103.22 92.737 103.314 92.8266 103.427C92.9162 103.54 92.9819 103.67 93.0197 103.81C93.0575 103.949 93.0667 104.094 93.0467 104.237Z" fill="#263238"/>
<path d="M94.5092 103.442C94.3442 103.566 93.614 102.811 92.438 102.614C91.262 102.417 90.2905 102.862 90.1894 102.701C90.0883 102.54 90.3143 102.386 90.7417 102.177C91.3113 101.911 91.9487 101.825 92.5685 101.931C93.1829 102.036 93.7493 102.33 94.1892 102.771C94.5004 103.112 94.5819 103.39 94.5092 103.442Z" fill="#263238"/>
<path d="M97.3237 112.921C97.9779 112.827 98.6416 112.817 99.2983 112.892C99.6021 112.943 99.8981 112.897 99.9866 112.703C100.063 112.395 100.045 112.071 99.9342 111.774C99.7753 111.002 99.6086 110.182 99.4303 109.335C98.7404 105.857 98.2952 103.019 98.4355 102.995C98.5757 102.97 99.2455 105.757 99.9354 109.236C100.101 110.064 100.258 110.891 100.4 111.716C100.527 112.109 100.513 112.534 100.359 112.918C100.296 113.017 100.212 113.1 100.113 113.162C100.014 113.225 99.9023 113.264 99.7861 113.278C99.6109 113.298 99.4339 113.292 99.2603 113.262C98.6036 113.225 97.9536 113.111 97.3237 112.921Z" fill="#263238"/>
<path d="M93.7145 113.149C93.9014 113.18 93.695 114.459 94.6417 115.546C95.5884 116.634 96.9722 116.738 96.9512 116.91C96.9303 117.083 96.6057 117.109 96.0268 117.028C95.275 116.91 94.5876 116.535 94.0831 115.965C93.6018 115.414 93.3519 114.698 93.3852 113.967C93.4286 113.421 93.6223 113.125 93.7145 113.149Z" fill="#263238"/>
<path d="M95.5494 100.485C95.3791 100.785 94.2279 100.44 92.8142 100.371C91.4005 100.302 90.215 100.496 90.0764 100.176C90.022 100.023 90.2663 99.7596 90.7755 99.4926C91.4397 99.2031 92.1638 99.0774 92.8868 99.126C93.6099 99.1557 94.3148 99.3619 94.94 99.7264C95.407 100.045 95.6223 100.337 95.5494 100.485Z" fill="#263238"/>
<path d="M106.382 102.782C106.128 103.011 105.362 102.611 104.381 102.446C103.399 102.282 102.544 102.323 102.404 102.011C102.342 101.856 102.519 101.614 102.92 101.417C103.457 101.195 104.047 101.138 104.617 101.252C105.186 101.366 105.709 101.646 106.119 102.057C106.429 102.357 106.491 102.656 106.382 102.782Z" fill="#263238"/>
<path d="M79.773 102.076C87.3091 99.488 93.6722 94.9659 100.305 90.5532C103.084 95.0006 106.556 98.9752 110.59 102.326C110.861 99.7535 111.108 97.0404 110.081 94.6663C108.977 92.0792 106.502 90.319 103.848 89.4336C101.155 88.6675 98.36 88.3258 95.5622 88.4208C91.5235 88.3922 87.395 88.5167 83.6171 89.9411C81.8039 90.5065 80.2242 91.647 79.1169 93.1901C77.5643 95.7163 77.8119 98.8245 78.4881 101.716" fill="#407BFF"/>
<path d="M101.929 87.0301C102.708 85.0703 103.034 82.9601 102.884 80.8566C102.725 78.7426 101.862 76.7428 100.433 75.1771C98.8795 73.6579 96.9037 72.6429 94.7639 72.2649C92.6343 71.8923 90.4712 71.747 88.3109 71.8315C88.6152 74.7376 90.0577 77.4049 92.3229 79.2506C94.5881 81.0963 97.4919 81.9701 100.4 81.6812C101.027 81.6182 101.784 81.5449 102.173 82.0425C102.387 82.3823 102.467 82.7896 102.397 83.1852C102.291 84.5471 101.905 85.8725 101.264 87.0788" fill="#455A64"/>
<path d="M103.184 89.5706C102.997 90.0485 102.673 90.4603 102.252 90.7539C101.831 91.0476 101.332 91.21 100.819 91.2206C100.306 91.2312 99.8013 91.0896 99.3685 90.8137C98.9357 90.5377 98.5944 90.1398 98.3876 89.67C98.1808 89.2003 98.1177 88.6798 98.2064 88.1743C98.2951 87.6687 98.5315 87.2008 98.8858 86.8295C99.2402 86.4582 99.6965 86.2001 100.197 86.0879C100.698 85.9757 101.221 86.0143 101.7 86.199C102.344 86.4494 102.862 86.9453 103.14 87.5775C103.419 88.2097 103.434 88.9266 103.184 89.5706Z" fill="#263238"/>
<path d="M99.5141 89.8761C99.5063 89.9228 99.226 89.8278 98.9784 89.442C98.8226 89.2024 98.7225 88.931 98.6854 88.6476C98.6484 88.3643 98.6754 88.0762 98.7644 87.8047C98.86 87.5329 99.0151 87.2859 99.2183 87.0817C99.4216 86.8775 99.6678 86.7213 99.9392 86.6244C100.355 86.4859 100.623 86.555 100.623 86.603C100.623 86.6511 100.382 86.7067 100.054 86.892C99.6287 87.1073 99.3043 87.4809 99.1507 87.9326C98.9971 88.3844 99.0266 88.8783 99.2329 89.3085C99.3689 89.6436 99.5544 89.8268 99.5141 89.8761Z" fill="white"/>
<path d="M88.2991 71.9016C88.5476 71.922 88.7916 71.9791 89.0233 72.0711C89.488 72.213 90.1499 72.4201 90.9454 72.7376C93.0364 73.5515 95.0469 74.5587 96.9507 75.7462C98.0047 76.3899 99.0201 77.0949 99.9917 77.8575C100.8 78.4828 101.499 79.2386 102.059 80.0937C102.432 80.6756 102.693 81.3223 102.828 82.0003C102.898 82.2443 102.91 82.5013 102.863 82.7507C102.677 81.8588 102.322 81.0109 101.816 80.2532C100.893 78.8333 98.9288 77.4631 96.7335 76.0862C94.8487 74.9154 92.8807 73.8842 90.8451 73.0011C89.2775 72.3219 88.2809 71.9626 88.2991 71.9016Z" fill="#263238"/>
<path d="M70.1541 102.377C70.1541 102.377 70.1087 102.265 70.0518 102.031C69.981 101.695 69.9392 101.353 69.9269 101.01C69.8614 99.7301 70.1166 98.4545 70.6692 97.2987C71.0547 96.5073 71.5628 95.7818 72.1746 95.149C72.8902 94.4301 73.7048 93.8171 74.5937 93.3286C76.6292 92.2544 78.8112 91.4845 81.0701 91.0435C85.1172 90.1334 89.2137 89.4594 93.339 89.0249C94.9269 88.8668 96.2084 88.7693 97.0977 88.7183L98.1207 88.6816C98.2399 88.6642 98.3613 88.6683 98.479 88.6936C98.0275 88.7864 97.5704 88.8489 97.1105 88.8806L93.379 89.3119C90.2291 89.7126 85.882 90.3769 81.1632 91.4434C78.9409 91.8794 76.7911 92.6269 74.7777 93.6637C73.9127 94.1249 73.1171 94.7058 72.4145 95.3894C71.8162 95.995 71.3138 96.6884 70.9248 97.4456C70.3655 98.5536 70.0752 99.7777 70.0775 101.019C70.0922 101.886 70.1943 102.376 70.1541 102.377Z" fill="#263238"/>
<path d="M75.1707 81.9593C75.1707 81.9593 75.1851 81.8736 75.3345 81.7466C75.5144 81.5639 75.711 81.3984 75.9218 81.2525C76.6921 80.7244 77.5715 80.3765 78.4946 80.2346C79.8848 80.0428 81.2998 80.1464 82.6473 80.5385C84.2671 81.0261 85.8603 81.5979 87.4205 82.2516C90.7557 83.5634 93.7651 84.7646 95.9375 85.6572L98.5031 86.736C98.8242 86.8525 99.1318 87.0034 99.4205 87.186C99.087 87.1167 98.7607 87.0164 98.4458 86.8865L95.8347 85.9363C93.635 85.1111 90.5645 83.9397 87.2683 82.6344C85.5994 81.9863 84.0266 81.2902 82.5457 80.9058C81.2491 80.5041 79.8838 80.3733 78.5346 80.5215C77.6357 80.6321 76.769 80.9255 75.9879 81.3837C75.4579 81.7272 75.1902 81.9866 75.1707 81.9593Z" fill="#263238"/>
<path d="M116.335 86.3066C116.335 86.3066 116.16 86.1571 115.889 85.8635C115.51 85.465 115.077 85.1227 114.602 84.847C113.891 84.4653 113.084 84.2993 112.28 84.3696C111.275 84.448 110.285 84.6561 109.333 84.9886C107.296 85.6799 105.474 86.5194 104.061 86.827C103.509 86.9716 102.944 87.0619 102.374 87.0967C102.165 87.1278 101.952 87.1165 101.747 87.0637C101.758 87.0013 102.629 86.9632 103.987 86.5504C105.345 86.1376 107.118 85.3059 109.207 84.599C110.19 84.256 111.216 84.0507 112.255 83.9892C113.132 83.9322 114.004 84.1456 114.755 84.6005C115.248 84.9092 115.681 85.3046 116.033 85.7676C116.252 86.0845 116.354 86.2859 116.335 86.3066Z" fill="#263238"/>
<path d="M115.134 103.449C115.356 102.431 115.471 101.393 115.477 100.351C115.441 99.2286 115.195 98.1225 114.751 97.0908C114.198 95.8182 113.352 94.6942 112.282 93.8103C110.294 92.2508 108.066 91.0253 105.684 90.1819C103.873 89.4778 102.738 89.0795 102.757 89.0185C103.039 89.0445 103.316 89.1072 103.582 89.2049C104.109 89.3573 104.863 89.5878 105.786 89.9107C108.234 90.6868 110.521 91.9004 112.536 93.4925C113.636 94.4129 114.503 95.5818 115.063 96.9028C115.525 97.994 115.764 99.1666 115.766 100.352C115.77 101.146 115.659 101.936 115.436 102.698C115.375 102.963 115.273 103.216 115.134 103.449Z" fill="#263238"/>
<path d="M71.3685 100.531C71.3107 100.438 71.2682 100.336 71.2428 100.229C71.132 99.9525 71.0378 99.6694 70.9606 99.3813C70.6794 98.2811 70.5194 97.1535 70.4835 96.0185C70.4104 94.333 70.5349 92.6447 70.8545 90.9882C71.2129 88.9515 71.8807 86.9816 72.8348 85.1468C73.8187 83.32 75.1288 81.6889 76.7003 80.3341C77.9712 79.2185 79.3967 78.2924 80.9326 77.5847C81.9597 77.1159 83.0342 76.7592 84.1377 76.5206C84.4376 76.4452 84.7415 76.3866 85.0479 76.3449C85.152 76.323 85.2584 76.3139 85.3647 76.318C83.8865 76.7223 82.4437 77.2463 81.0505 77.8847C79.5619 78.6174 78.18 79.5494 76.9428 80.655C75.4232 81.998 74.1521 83.5982 73.1877 85.3821C72.2555 87.1838 71.5898 89.1112 71.2114 91.1041C70.8833 92.7342 70.7337 94.3952 70.7652 96.0577C70.7763 97.177 70.8922 98.2928 71.1112 99.3906C71.2188 99.7654 71.3047 100.146 71.3685 100.531Z" fill="white"/>
<path d="M77.844 108.566C77.844 108.566 78.2323 108.495 78.5876 108.907C78.815 109.156 78.9431 109.479 78.9476 109.816C78.9424 110.028 78.8855 110.236 78.7819 110.421C78.6784 110.606 78.5312 110.763 78.3533 110.878C78.2 110.993 78.0217 111.069 77.8329 111.102C77.6441 111.134 77.4503 111.121 77.2675 111.064C77.0847 111.007 76.9181 110.907 76.7815 110.773C76.6449 110.638 76.5422 110.474 76.4818 110.292C76.2941 109.74 76.558 109.408 76.6229 109.451C76.6877 109.494 76.5667 109.785 76.7805 110.182C76.8948 110.406 77.0878 110.581 77.3227 110.673C77.4608 110.717 77.6074 110.728 77.7505 110.705C77.8936 110.682 78.0291 110.625 78.1459 110.539C78.2707 110.46 78.3756 110.353 78.4523 110.227C78.529 110.101 78.5754 109.959 78.588 109.812C78.5988 109.559 78.5286 109.309 78.3875 109.098C78.1386 108.72 77.8258 108.627 77.844 108.566Z" fill="#263238"/>
</svg>
