<svg width="403" height="450" viewBox="0 0 403 450" fill="none" xmlns="http://www.w3.org/2000/svg">
<path d="M193.718 414.64C209.408 414.762 229.563 419.466 242.542 410.633C255.521 401.799 261.25 380.839 249.526 370.405C241.637 363.382 229.695 363.899 219.317 365.828C201.253 369.184 183.646 375.569 165.289 376.205C146.931 376.84 126.669 370.12 117.997 353.911C112.283 343.182 112.097 329.329 103.362 320.883C91.7787 309.669 69.0167 312.031 62.5212 297.283C56.0888 282.742 72.598 267.552 71.8529 251.662C70.8181 229.535 38.8781 220.456 34.4155 198.699C31.4086 184.254 41.9734 170.651 52.7459 160.601C63.5185 150.551 75.9672 140.218 78.5848 125.706C80.9493 112.574 74.4893 99.3634 75.0109 86.0204C75.9097 63.1102 96.5187 46.1972 116.701 35.3253C136.56 24.638 158.947 16.481 181.264 19.3649C203.581 22.2488 225.368 38.9739 227.811 61.3804C229.013 72.3416 225.66 83.2772 225.332 94.2968C225.005 105.316 229.084 117.965 239.392 121.886C252.097 126.731 264.855 115.852 274.576 106.31C284.297 96.7672 298.673 87.1149 310.27 94.1623C323.409 102.12 320.176 124.443 332.818 133.164C337.772 136.578 344.283 137.116 349.249 140.522C360.168 147.988 358.453 164.953 352.01 176.51C347.584 184.361 341.656 191.264 334.563 196.824C327.471 202.384 319.352 206.493 310.671 208.915C298.995 212.115 286.28 212.252 275.656 218.049C267.709 222.385 261.696 229.498 255.883 236.449C251.093 242.16 246.208 248.051 243.575 255.014C240.941 261.977 240.933 270.445 245.42 276.387C250.879 283.588 261.105 285.151 270.144 284.343C279.182 283.535 288.089 280.924 297.067 282.093C314.665 284.37 326.986 300.051 337.315 314.475C342.708 322.002 348.174 329.682 351.114 338.503C354.054 347.323 354.187 357.476 349.222 365.329C344.01 373.554 334.234 377.788 328.129 385.386C322.542 392.353 320.533 401.484 316.116 409.244C306.882 425.47 287.701 434.121 269.062 435.013C250.422 435.905 205.97 431.905 193.734 414.675" fill="#407BFF"/>
<path opacity="0.9" d="M193.718 414.64C209.408 414.762 229.563 419.466 242.542 410.633C255.521 401.799 261.25 380.839 249.526 370.405C241.637 363.382 229.695 363.899 219.317 365.828C201.253 369.184 183.646 375.569 165.289 376.205C146.931 376.84 126.669 370.12 117.997 353.911C112.283 343.182 112.097 329.329 103.362 320.883C91.7787 309.669 69.0167 312.031 62.5212 297.283C56.0888 282.742 72.598 267.552 71.8529 251.662C70.8181 229.535 38.8781 220.456 34.4155 198.699C31.4086 184.254 41.9734 170.651 52.7459 160.601C63.5185 150.551 75.9672 140.218 78.5848 125.706C80.9493 112.574 74.4893 99.3634 75.0109 86.0204C75.9097 63.1102 96.5187 46.1972 116.701 35.3253C136.56 24.638 158.947 16.481 181.264 19.3649C203.581 22.2488 225.368 38.9739 227.811 61.3804C229.013 72.3416 225.66 83.2772 225.332 94.2968C225.005 105.316 229.084 117.965 239.392 121.886C252.097 126.731 264.855 115.852 274.576 106.31C284.297 96.7672 298.673 87.1149 310.27 94.1623C323.409 102.12 320.176 124.443 332.818 133.164C337.772 136.578 344.283 137.116 349.249 140.522C360.168 147.988 358.453 164.953 352.01 176.51C347.584 184.361 341.656 191.264 334.563 196.824C327.471 202.384 319.352 206.493 310.671 208.915C298.995 212.115 286.28 212.252 275.656 218.049C267.709 222.385 261.696 229.498 255.883 236.449C251.093 242.16 246.208 248.051 243.575 255.014C240.941 261.977 240.933 270.445 245.42 276.387C250.879 283.588 261.105 285.151 270.144 284.343C279.182 283.535 288.089 280.924 297.067 282.093C314.665 284.37 326.986 300.051 337.315 314.475C342.708 322.002 348.174 329.682 351.114 338.503C354.054 347.323 354.187 357.476 349.222 365.329C344.01 373.554 334.234 377.788 328.129 385.386C322.542 392.353 320.533 401.484 316.116 409.244C306.882 425.47 287.701 434.121 269.062 435.013C250.422 435.905 205.97 431.905 193.734 414.675" fill="white"/>
<path d="M105.97 228.132C96.2968 257.725 94.7983 292.825 114.591 316.849C134.385 340.872 174.829 353.103 205.724 349.25C219.449 347.556 232.664 342.822 246.454 341.389C260.244 339.955 275.492 342.522 284.703 352.861C295.433 364.953 294.047 384.741 284.239 397.591C274.43 410.441 258.11 416.988 242.01 418.469C225.91 419.95 209.781 417.007 193.892 414.06C214.924 425.838 240.056 431.355 263.676 426.466C287.296 421.577 309.052 405.465 317.992 383.034C326.931 360.603 321.326 332.39 302.659 316.992C291.346 307.668 282.606 299.83 266.025 294.726C252.015 290.412 238.167 289.535 223.689 287.237C205.234 284.306 192.093 282.711 182.251 260.53L176.241 238.09L105.97 228.132Z" fill="#407BFF"/>
<g opacity="0.3">
<path d="M105.97 228.132C96.2968 257.725 94.7983 292.825 114.591 316.849C134.385 340.872 174.829 353.103 205.724 349.25C219.449 347.556 232.664 342.822 246.454 341.389C260.244 339.955 275.492 342.522 284.703 352.861C295.433 364.953 294.047 384.741 284.239 397.591C274.43 410.441 258.11 416.988 242.01 418.469C225.91 419.95 209.781 417.007 193.892 414.06C214.924 425.838 240.056 431.355 263.676 426.466C287.296 421.577 309.052 405.465 317.992 383.034C326.931 360.603 321.326 332.39 302.659 316.992C291.346 307.668 282.606 299.83 266.025 294.726C252.015 290.412 238.167 289.535 223.689 287.237C205.234 284.306 192.093 282.711 182.251 260.53L176.241 238.09L105.97 228.132Z" fill="black"/>
</g>
<path d="M269.348 337.464C268.195 337.352 267.052 337.161 265.926 336.891C263.814 336.537 260.91 336.05 257.687 335.65C254.464 335.251 251.498 335.134 249.361 335.058C248.207 335.068 247.052 335.013 245.904 334.891C247.049 334.696 248.211 334.622 249.372 334.669C254.972 334.621 260.558 335.24 266.011 336.514C267.151 336.722 268.269 337.041 269.348 337.464Z" fill="white"/>
<path d="M290.41 350.55C290.036 349.444 289.475 348.41 288.751 347.493C287.911 346.69 286.942 346.032 285.886 345.547C285.896 345.483 286.313 345.456 286.952 345.66C287.8 345.956 288.559 346.463 289.157 347.133C289.755 347.803 290.173 348.615 290.371 349.491C290.588 350.135 290.518 350.558 290.41 350.55Z" fill="white"/>
<path d="M105.71 130.992L65.8069 170.641C63.0024 173.427 61.3464 177.165 61.1669 181.114C60.9873 185.063 62.2973 188.936 64.8375 191.965L91.6363 223.938L103.528 212.523L88.0624 182.374L111.572 164.547L105.71 130.992Z" fill="#B78876"/>
<path d="M82.3694 213.416L98.0935 201.938L103.528 212.523L91.6363 223.938L82.3694 213.416Z" fill="#407BFF"/>
<path d="M165.291 126.096C166.326 126.4 167.729 126.776 169.436 127.279L169.774 127.336C176.308 129.307 181.844 133.7 185.247 139.617C188.651 145.534 189.665 152.527 188.084 159.167L183.062 180.767C183.062 180.767 175.272 218.037 175.096 217.855L176.413 244.579L104.058 234.75L110.305 209.012L103.686 193.256L108.602 166.589L102.858 135.834C106.315 128.813 115.625 122.047 127.036 121.788C130.655 121.7 134.289 121.007 138.446 121.53C141.758 125.131 146.163 127.542 150.981 128.391C155.799 129.24 160.763 128.48 165.106 126.228L165.291 126.096Z" fill="#B78876"/>
<path d="M109.104 207.627L108.991 211.669L133.883 216.809L134.509 144.821L109.104 207.627Z" fill="#AA6550"/>
<path d="M137.301 120.98L130.833 212.269L101.478 206.034L107.875 167.879C107.875 167.879 123.91 144.51 105.555 131.661C105.555 131.661 109.978 123.152 117.187 122.569L137.301 120.98Z" fill="#407BFF"/>
<path d="M164.785 144.914C164.803 144.222 159.057 215.992 159.057 215.992C159.013 216.3 159.038 216.615 159.128 216.913C159.219 217.212 159.374 217.487 159.582 217.719C159.92 217.947 160.317 218.074 160.726 218.084L174.196 219.659L175.417 214.511C174.527 214.191 173.71 213.696 173.014 213.055C172.318 212.414 171.756 211.641 171.363 210.78C170.583 209.06 170.04 207.241 169.751 205.375C166.264 188.222 162.768 170.546 165.958 153.329" fill="#AA6550"/>
<path d="M165.291 126.096L162.855 213.48L183.5 216.941L184.863 138.877C184.863 138.877 180.839 127.975 165.291 126.096Z" fill="#407BFF"/>
<path d="M103.939 234.871L177.871 244.172L175.594 225.116L108.186 213.814L103.939 234.871Z" fill="#407BFF"/>
<path d="M103.528 212.523L115.406 209.933C115.835 209.929 116.259 210.02 116.649 210.198C117.04 210.376 117.386 210.637 117.665 210.963C119.726 213.371 124.683 219.36 126.16 222.658C127.637 225.957 124.504 227.223 123.664 225.953C114.334 212.055 113.587 219.095 113.587 219.095C113.587 219.095 122.091 228.664 120.74 229.86C119.389 231.056 118.784 231.486 117.077 229.691C115.146 227.673 109.954 222.503 109.954 222.503C109.954 222.503 116.081 229.285 116.614 231.22C116.702 231.576 116.685 231.95 116.564 232.296C116.442 232.642 116.223 232.946 115.932 233.169C115.641 233.392 115.291 233.526 114.925 233.553C114.56 233.58 114.194 233.5 113.873 233.323C112.518 232.596 104.768 224.294 104.768 224.294C104.768 224.294 99.6924 228.665 96.926 229.494C94.1597 230.322 91.6117 223.89 91.6117 223.89L103.528 212.523Z" fill="#B78876"/>
<path d="M103.87 212.558L104.132 212.483L104.903 212.286L107.907 211.596L112.654 210.546C113.598 210.356 114.543 210.092 115.651 209.962C115.953 209.921 116.262 209.954 116.549 210.059C116.836 210.164 117.093 210.337 117.298 210.564C117.692 210.999 118.027 211.457 118.416 211.924L123.325 218.002C124.223 219.119 125.129 220.194 126.008 221.427C126.481 222.072 126.802 222.817 126.946 223.604C127.01 224.026 126.984 224.456 126.87 224.868C126.757 225.279 126.557 225.661 126.285 225.99C125.98 226.353 125.554 226.593 125.086 226.668C124.85 226.687 124.613 226.658 124.389 226.583C124.164 226.508 123.957 226.389 123.78 226.232C123.141 225.683 122.568 225.063 122.071 224.382C121.012 223.119 120.121 221.634 119.072 220.318C118.524 219.659 117.892 219.075 117.191 218.581C116.843 218.339 116.476 218.125 116.094 217.941C115.928 217.838 115.744 217.77 115.552 217.741C115.356 217.719 115.158 217.723 114.964 217.751C114.587 217.797 114.159 217.953 114.03 218.203C113.965 218.372 113.939 218.554 113.954 218.735C113.968 218.916 114.024 219.092 114.115 219.249C114.545 220.015 115.058 220.731 115.647 221.384C117.305 223.024 118.827 224.797 120.197 226.685C120.504 227.177 120.759 227.7 120.956 228.245C121.08 228.537 121.142 228.852 121.137 229.169C121.133 229.486 121.062 229.798 120.93 230.087C120.762 230.356 120.534 230.583 120.263 230.749C119.992 230.915 119.686 231.015 119.369 231.041C118.78 231.089 118.189 230.99 117.648 230.752L110.025 222.602L110.395 222.273C111.714 223.942 112.952 225.539 114.108 227.065C114.684 227.834 115.242 228.59 115.767 229.341C116.358 230.037 116.795 230.85 117.05 231.727C117.093 231.966 117.077 232.212 117.004 232.443C116.931 232.675 116.803 232.886 116.632 233.057C116.313 233.365 115.898 233.552 115.457 233.588C114.63 233.616 113.822 233.338 113.189 232.806C112.128 231.927 111.139 230.966 110.229 229.932C109.819 229.519 109.388 229.128 108.938 228.76C108.544 228.415 108.183 228.034 107.858 227.624C107.234 226.878 106.72 226.249 106.283 225.753C105.845 225.256 105.482 224.891 105.229 224.653C105.096 224.544 104.97 224.425 104.855 224.297C105.011 224.375 105.155 224.476 105.282 224.597C105.674 224.923 106.047 225.272 106.399 225.642C106.86 226.132 107.396 226.753 108.024 227.478C108.352 227.868 108.713 228.229 109.102 228.56C109.57 228.922 110.015 229.312 110.437 229.728C111.351 230.728 112.338 231.659 113.39 232.514C113.964 232.994 114.697 233.241 115.445 233.206C115.811 233.192 116.16 233.046 116.426 232.795C116.564 232.665 116.664 232.5 116.718 232.319C116.771 232.137 116.775 231.944 116.73 231.76C116.479 230.94 116.063 230.179 115.508 229.525C114.979 228.796 114.411 228.038 113.833 227.279C112.642 225.748 111.399 224.16 110.104 222.517L110.472 222.199L118.089 230.197L117.993 230.181C118.448 230.381 118.945 230.464 119.44 230.423C119.67 230.406 119.893 230.336 120.092 230.219C120.29 230.101 120.459 229.94 120.585 229.747C121.007 228.916 120.378 227.812 119.857 226.899C118.521 225.048 117.042 223.304 115.433 221.684C114.81 220.988 114.268 220.224 113.818 219.405C113.69 219.17 113.619 218.909 113.609 218.641C113.599 218.374 113.651 218.108 113.761 217.865C113.917 217.649 114.119 217.472 114.352 217.346C114.586 217.22 114.845 217.148 115.11 217.135C115.355 217.1 115.604 217.098 115.85 217.129C116.099 217.17 116.338 217.258 116.555 217.388C116.965 217.578 117.356 217.807 117.722 218.073C118.448 218.59 119.097 219.207 119.651 219.905C120.746 221.272 121.623 222.711 122.649 223.98C123.116 224.624 123.655 225.213 124.254 225.736C124.502 225.963 124.825 226.09 125.16 226.095C125.493 226.02 125.791 225.837 126.008 225.574C126.234 225.302 126.401 224.985 126.497 224.644C126.594 224.303 126.618 223.945 126.567 223.595C126.434 222.883 126.142 222.211 125.714 221.627C124.835 220.394 123.929 219.32 123.031 218.203L118.173 212.079C117.804 211.626 117.452 211.133 117.095 210.737C116.932 210.545 116.722 210.397 116.487 210.308C116.251 210.22 115.996 210.192 115.747 210.228C114.726 210.361 113.705 210.624 112.782 210.817L108.007 211.775L104.989 212.355L104.206 212.495C104.099 212.538 103.985 212.56 103.87 212.558Z" fill="#AA6550"/>
<path d="M91.8239 221.07C90.7055 220.016 89.7158 218.833 88.8752 217.547C87.8904 216.367 87.0501 215.075 86.3722 213.696C87.498 214.743 88.4886 215.927 89.3209 217.22C90.3101 218.396 91.1507 219.689 91.8239 221.07Z" fill="white"/>
<path d="M267.808 156.258C274.494 149.149 279.802 143.004 283.814 134.1C284.089 133.303 284.552 132.583 285.164 132.003C285.478 131.722 285.883 131.562 286.305 131.553C286.726 131.544 287.137 131.687 287.463 131.954C288.139 132.654 287.815 133.805 287.446 134.709C286.261 137.637 284.663 140.757 283.473 143.706C285.129 141.215 287.934 136.528 289.577 134.046C289.975 133.336 290.527 132.723 291.191 132.254C291.525 132.021 291.923 131.9 292.329 131.908C292.736 131.916 293.129 132.052 293.453 132.296C294.398 133.139 293.844 134.631 293.271 135.718C292.045 138.042 289.075 143.125 287.862 145.441C289.355 143.465 291.539 140.086 293.034 138.1C293.813 137.079 294.995 135.921 296.176 136.455C296.572 136.663 296.887 136.996 297.073 137.402C297.258 137.809 297.303 138.266 297.2 138.701C296.983 139.569 296.569 140.377 295.99 141.06C294.917 142.541 294.912 142.638 293.838 144.119L291.15 147.783C291.15 147.783 293.399 146.412 294.528 148.1C295.083 148.931 294.394 150.064 293.86 150.919C292.426 153.729 290.814 156.443 289.034 159.046C285.949 163.132 282.381 164.336 282.354 164.049L278.51 168.323L267.808 156.258Z" fill="#B78876"/>
<path d="M291.462 147.738C290.122 149.555 288.792 151.377 287.473 153.204C287.112 153.636 286.83 154.129 286.642 154.66C286.549 154.926 286.522 155.21 286.565 155.488C286.607 155.765 286.717 156.029 286.885 156.254C287.09 156.46 287.346 156.609 287.627 156.685C287.908 156.761 288.204 156.761 288.485 156.685C289.056 156.549 289.581 156.262 290.003 155.854C290.532 155.356 293.16 151.66 293.49 151.248" fill="#B78876"/>
<path d="M293.534 151.245C293.116 152.095 292.617 152.902 292.044 153.656C291.472 154.531 290.839 155.364 290.149 156.15C289.657 156.599 289.045 156.896 288.388 157.006C288.026 157.042 287.662 156.981 287.332 156.828C287.148 156.75 286.981 156.637 286.841 156.494C286.701 156.351 286.59 156.182 286.516 155.997C286.399 155.645 286.363 155.27 286.412 154.902C286.46 154.534 286.592 154.182 286.796 153.872C287.143 153.29 287.524 152.833 287.864 152.358C288.545 151.473 289.16 150.653 289.731 149.902C290.271 149.117 290.888 148.387 291.572 147.724C291.155 148.578 290.656 149.389 290.081 150.145L288.311 152.671C287.981 153.148 287.595 153.637 287.304 154.142C287.139 154.375 287.029 154.642 286.982 154.924C286.935 155.206 286.952 155.494 287.032 155.768C287.15 156.01 287.345 156.206 287.585 156.327C287.826 156.448 288.099 156.486 288.364 156.437C288.911 156.347 289.422 156.106 289.838 155.74C290.597 154.966 291.206 154.058 291.762 153.391C292.277 152.616 292.87 151.897 293.534 151.245Z" fill="#AA6550"/>
<path d="M269.621 156.193C270.087 156.678 270.693 157.005 271.354 157.128C272.015 157.25 272.698 157.162 273.307 156.876C274.57 156.404 275.63 155.518 276.884 154.968C280.521 153.287 285.075 154.68 288.631 152.833C289.13 152.58 289.665 152.105 289.518 151.56C289.371 151.014 288.772 150.892 288.253 150.815L275.132 148.713" fill="#B78876"/>
<path d="M275.105 148.676C275.587 148.636 276.072 148.663 276.547 148.755C277.474 148.856 278.802 149.035 280.437 149.255L286.191 150.101L287.849 150.379C288.54 150.379 289.204 150.65 289.698 151.134C289.828 151.318 289.897 151.539 289.894 151.765C289.891 151.99 289.817 152.21 289.683 152.391C289.471 152.692 289.192 152.939 288.867 153.112C288.288 153.418 287.676 153.658 287.043 153.826C284.479 154.482 282.034 154.235 279.914 154.51C278.911 154.598 277.929 154.844 277.002 155.237C276.148 155.604 275.399 156.119 274.617 156.509C274.05 156.893 273.405 157.148 272.728 157.256C272.052 157.364 271.36 157.322 270.701 157.134C269.774 156.772 269.548 156.181 269.579 156.186C269.94 156.48 270.351 156.706 270.791 156.856C271.408 156.974 272.043 156.963 272.656 156.822C273.268 156.682 273.844 156.416 274.348 156.041C275.046 155.637 275.789 155.088 276.698 154.654C277.676 154.214 278.717 153.927 279.783 153.803C282.006 153.492 284.437 153.694 286.799 153.08C287.375 152.935 287.932 152.722 288.457 152.446C288.945 152.191 289.234 151.762 289.032 151.543C288.83 151.325 288.258 151.175 287.686 151.09L286.038 150.813L280.304 149.852C278.667 149.578 277.356 149.303 276.443 149.118C275.979 149.029 275.53 148.881 275.105 148.676Z" fill="#AA6550"/>
<path d="M184.974 138.212L224.326 177.556L268.087 156.153L279.25 167.797C279.25 167.797 239.018 206.489 221.117 208.482C218.331 208.304 215.614 207.537 213.145 206.234C209.223 204.11 182.726 182.774 182.726 182.774L184.974 138.212Z" fill="#B78876"/>
<path d="M268.044 156.146L279.202 167.821L272.225 174.273L258.786 160.663L268.044 156.146Z" fill="#407BFF"/>
<path d="M268.029 157.012C266.938 158.049 265.716 158.939 264.393 159.66C263.338 160.319 262.366 160.872 261.621 161.236C261.331 161.381 261.031 161.505 260.723 161.607C260.629 161.635 260.532 161.648 260.434 161.645C260.329 161.627 260.334 161.53 260.364 161.546C260.394 161.562 262.007 160.486 264.103 159.188C265.325 158.316 266.643 157.586 268.029 157.012Z" fill="white"/>
<path d="M282.365 130.307C279.932 128.92 277.595 127.371 275.369 125.671C273.03 124.124 270.798 122.422 268.688 120.577C271.119 121.966 273.457 123.515 275.684 125.213C278.021 126.763 280.252 128.464 282.365 130.307Z" fill="#263238"/>
<path d="M289.09 127.754C288.942 127.794 287.311 122.439 285.439 115.796C283.567 109.152 282.176 103.718 282.324 103.678C282.472 103.638 284.104 108.992 285.976 115.636C287.848 122.28 289.238 127.713 289.09 127.754Z" fill="#263238"/>
<path d="M302.805 109.87C301.794 112.696 300.606 115.456 299.248 118.133C298.047 120.881 296.678 123.552 295.149 126.132C296.161 123.31 297.349 120.553 298.704 117.879C299.907 115.129 301.277 112.454 302.805 109.87Z" fill="#263238"/>
<path d="M308.104 127.348C306.936 128.164 305.723 128.913 304.471 129.594C303.296 130.43 302.079 131.204 300.824 131.915C301.726 130.768 302.849 129.815 304.128 129.114C305.317 128.256 306.671 127.655 308.104 127.348Z" fill="#263238"/>
<path d="M139.754 86.9842C137.844 87.0083 135.961 86.532 134.292 85.6027C132.623 84.6734 131.227 83.3233 130.241 81.6869C128.233 78.2879 127.355 74.3391 127.735 70.4094C128.102 66.2649 129.321 62.2407 131.313 58.5883C133.306 54.9359 136.031 51.7337 139.317 49.1818C145.809 44.2475 153.703 41.5061 161.856 41.3541C168.096 41.0217 174.314 42.3225 179.898 45.1282C185.571 48.0516 189.979 52.9498 192.29 58.8991C193.986 63.8407 194.326 69.1468 193.275 74.2645C192.429 78.8565 190.653 83.4229 187.372 86.6729C184.091 89.9228 179.251 91.6627 175.001 90.2661" fill="#407BFF"/>
<path d="M136.847 133.01L164.065 136.324L166.258 115.086C166.258 115.086 176.943 115.205 178.836 104.817C180.73 94.4296 182.915 70.1934 182.915 70.1934C177.421 66.6579 171.082 64.6527 164.554 64.3846C158.026 64.1165 151.544 65.5952 145.778 68.6682L144.026 69.6013L136.847 133.01Z" fill="#B78876"/>
<path d="M166.298 114.908C161.474 114.186 156.973 112.048 153.366 108.766C153.366 108.766 155.277 116.795 165.868 117.604L166.298 114.908Z" fill="#AA6550"/>
<path d="M143.489 80.5749C143.324 80.4603 136.683 77.2623 135.722 84.419C134.761 91.5757 142.143 91.0653 142.176 90.8647C142.21 90.664 143.489 80.5749 143.489 80.5749Z" fill="#B78876"/>
<path d="M140.361 87.8348C140.361 87.8348 140.229 87.9104 140.002 87.97C139.683 88.0433 139.349 87.9873 139.072 87.8142C138.651 87.4569 138.332 86.9939 138.149 86.4728C137.965 85.9518 137.923 85.3912 138.028 84.8487C138.09 84.2333 138.29 83.6398 138.612 83.1118C138.711 82.8973 138.86 82.7099 139.047 82.5654C139.234 82.421 139.452 82.3237 139.685 82.2819C139.833 82.2647 139.982 82.2991 140.107 82.3795C140.232 82.4599 140.325 82.5812 140.371 82.7227C140.443 82.9411 140.378 83.0713 140.408 83.0871C140.438 83.103 140.575 82.9958 140.561 82.6894C140.549 82.5065 140.47 82.3345 140.338 82.2069C140.165 82.0292 139.928 81.9271 139.68 81.9228C139.377 81.9444 139.085 82.0416 138.83 82.2056C138.575 82.3696 138.365 82.5952 138.22 82.8615C137.835 83.4408 137.597 84.1052 137.526 84.7972C137.396 85.4294 137.46 86.0861 137.708 86.6817C137.957 87.2773 138.38 87.7841 138.921 88.1362C139.105 88.2171 139.306 88.2561 139.508 88.2505C139.709 88.2449 139.908 88.1949 140.088 88.1039C140.329 88.0249 140.392 87.8401 140.361 87.8348Z" fill="#AA6550"/>
<path d="M176.412 85.6708C176.352 86.0585 176.144 86.4077 175.83 86.6433C175.517 86.879 175.123 86.9824 174.734 86.9313C174.542 86.9153 174.355 86.8609 174.184 86.7713C174.012 86.6816 173.861 86.5587 173.738 86.4095C173.616 86.2604 173.524 86.0882 173.469 85.9031C173.414 85.7179 173.396 85.5236 173.418 85.3316C173.482 84.9446 173.694 84.5975 174.008 84.3629C174.323 84.1283 174.716 84.0244 175.105 84.0729C175.297 84.0888 175.484 84.1432 175.654 84.2328C175.825 84.3225 175.976 84.4455 176.097 84.5946C176.219 84.7437 176.31 84.9159 176.364 85.1007C176.418 85.2856 176.434 85.4795 176.412 85.6708Z" fill="#263238"/>
<path d="M178.483 84.4548C178.261 84.613 177.281 83.591 175.675 83.3325C174.068 83.0739 172.763 83.6694 172.627 83.4404C172.492 83.2114 172.805 83.0251 173.374 82.7405C174.147 82.3796 175.011 82.2631 175.851 82.4067C176.688 82.5391 177.459 82.9388 178.049 83.546C178.476 84.0411 178.567 84.4689 178.483 84.4548Z" fill="#263238"/>
<path d="M160.71 83.2231C160.638 83.6032 160.424 83.9418 160.112 84.1698C159.799 84.3978 159.411 84.498 159.027 84.4502C158.836 84.4328 158.65 84.3775 158.48 84.2874C158.31 84.1973 158.16 84.0743 158.039 83.9255C157.917 83.7767 157.826 83.6051 157.772 83.4209C157.717 83.2366 157.7 83.0433 157.721 82.8523C157.781 82.4617 157.991 82.1101 158.307 81.8728C158.622 81.6355 159.019 81.5314 159.41 81.5829C159.605 81.6008 159.794 81.6581 159.966 81.7512C160.138 81.8443 160.29 81.9714 160.411 82.1248C160.533 82.2781 160.622 82.4545 160.673 82.6433C160.724 82.8321 160.737 83.0293 160.71 83.2231Z" fill="#263238"/>
<path d="M162.693 82.144C162.469 82.3128 161.479 81.2891 159.885 81.0217C158.29 80.7543 156.973 81.3586 156.836 81.1402C156.698 80.9218 157.005 80.7126 157.584 80.4298C158.357 80.0688 159.221 79.9524 160.062 80.0959C160.895 80.2383 161.663 80.6365 162.259 81.2352C162.681 81.6969 162.792 82.0737 162.693 82.144Z" fill="#263238"/>
<path d="M166.509 94.9982C167.397 94.8705 168.296 94.8572 169.187 94.9586C169.599 95.0276 170 94.9646 170.12 94.7025C170.224 94.2847 170.199 93.8455 170.049 93.442C169.834 92.3961 169.608 91.2833 169.366 90.1354C168.43 85.4184 167.827 81.5715 168.017 81.5382C168.207 81.505 169.115 85.2836 170.051 90.0005C170.275 91.1238 170.489 92.2454 170.681 93.3634C170.854 93.8966 170.834 94.4733 170.625 94.9934C170.54 95.1273 170.426 95.2407 170.292 95.3252C170.157 95.4097 170.006 95.4633 169.848 95.482C169.611 95.5085 169.371 95.5012 169.135 95.4602C168.245 95.4097 167.364 95.2547 166.509 94.9982Z" fill="#263238"/>
<path d="M161.615 95.3072C161.869 95.3497 161.589 97.0834 162.872 98.5581C164.156 100.033 166.033 100.174 166.004 100.408C165.976 100.642 165.536 100.677 164.751 100.567C163.731 100.408 162.799 99.8983 162.115 99.126C161.462 98.3781 161.123 97.4073 161.169 96.4158C161.228 95.6765 161.49 95.2754 161.615 95.3072Z" fill="#263238"/>
<path d="M164.103 78.1354C163.872 78.5418 162.311 78.0738 160.394 77.9804C158.478 77.887 156.87 78.1495 156.682 77.7163C156.608 77.5085 156.94 77.1514 157.63 76.7895C158.531 76.3969 159.513 76.2264 160.493 76.2923C161.473 76.3326 162.429 76.6122 163.277 77.1065C163.91 77.5384 164.202 77.9348 164.103 78.1354Z" fill="#263238"/>
<path d="M178.792 81.2498C178.447 81.561 177.409 81.0179 176.078 80.7948C174.748 80.5717 173.588 80.6269 173.398 80.2042C173.314 79.9946 173.553 79.6657 174.097 79.3986C174.825 79.0983 175.626 79.0206 176.398 79.1752C177.171 79.3297 177.88 79.7098 178.436 80.2672C178.856 80.6742 178.94 81.0792 178.792 81.2498Z" fill="#263238"/>
<path d="M142.711 80.2923C152.93 76.7832 161.558 70.6514 170.552 64.6678C174.32 70.6985 179.028 76.0879 184.498 80.6319C184.866 77.1433 185.2 73.4644 183.808 70.2451C182.311 66.7371 178.955 64.3503 175.356 63.1498C171.705 62.1109 167.915 61.6476 164.121 61.7764C158.644 61.7376 153.046 61.9065 147.924 63.838C145.465 64.6046 143.323 66.1511 141.821 68.2435C139.716 71.6689 140.052 75.8835 140.969 79.8048" fill="#407BFF"/>
<path d="M172.754 59.8907C173.81 57.2333 174.252 54.3719 174.049 51.5197C173.834 48.6532 172.664 45.9415 170.726 43.8184C168.619 41.7585 165.94 40.3822 163.038 39.8696C160.151 39.3643 157.217 39.1674 154.288 39.282C154.701 43.2225 156.657 46.8393 159.728 49.342C162.8 51.8447 166.737 53.0296 170.68 52.6378C171.53 52.5524 172.557 52.453 173.084 53.1278C173.375 53.5885 173.483 54.1408 173.389 54.6772C173.245 56.5239 172.722 58.3212 171.852 59.9568" fill="#455A64"/>
<path d="M174.456 63.3351C174.202 63.9831 173.762 64.5415 173.192 64.9397C172.621 65.3378 171.945 65.558 171.249 65.5724C170.553 65.5869 169.869 65.3949 169.282 65.0207C168.695 64.6465 168.232 64.1069 167.952 63.4699C167.671 62.833 167.586 62.1272 167.706 61.4417C167.826 60.7562 168.147 60.1217 168.627 59.6182C169.108 59.1147 169.727 58.7648 170.406 58.6127C171.085 58.4605 171.794 58.5129 172.443 58.7633C173.316 59.1029 174.019 59.7752 174.396 60.6325C174.774 61.4898 174.795 62.4619 174.456 63.3351Z" fill="#263238"/>
<path d="M169.479 63.7495C169.469 63.8128 169.089 63.684 168.753 63.1608C168.542 62.836 168.406 62.4679 168.356 62.0837C168.306 61.6995 168.342 61.3089 168.463 60.9407C168.592 60.5722 168.803 60.2373 169.078 59.9604C169.354 59.6835 169.688 59.4716 170.056 59.3403C170.619 59.1525 170.984 59.2462 170.983 59.3113C170.983 59.3764 170.656 59.4518 170.212 59.7031C169.635 59.9951 169.195 60.5017 168.987 61.1142C168.778 61.7267 168.818 62.3965 169.098 62.9798C169.282 63.4342 169.534 63.6826 169.479 63.7495Z" fill="white"/>
<path d="M154.272 39.3768C154.609 39.4043 154.94 39.4818 155.254 39.6065C155.884 39.799 156.782 40.0798 157.861 40.5104C160.696 41.614 163.422 42.9797 166.004 44.59C167.433 45.4628 168.81 46.4187 170.127 47.4528C171.224 48.3006 172.171 49.3255 172.93 50.4851C173.436 51.274 173.79 52.1509 173.973 53.0703C174.068 53.4012 174.084 53.7496 174.02 54.0878C173.768 52.8784 173.286 51.7287 172.601 50.7013C171.349 48.776 168.686 46.918 165.709 45.0509C163.153 43.4633 160.485 42.0651 157.725 40.8676C155.599 39.9466 154.248 39.4595 154.272 39.3768Z" fill="#263238"/>
<path d="M129.668 80.7004C129.668 80.7004 129.607 80.5489 129.53 80.232C129.434 79.7758 129.377 79.3123 129.36 78.8464C129.271 77.1115 129.617 75.3818 130.367 73.8145C130.889 72.7415 131.578 71.7577 132.408 70.8996C133.378 69.9248 134.483 69.0936 135.688 68.4312C138.448 66.9746 141.407 65.9306 144.47 65.3326C149.958 64.0986 155.513 63.1847 161.106 62.5955C163.26 62.3811 164.997 62.2489 166.203 62.1797L167.59 62.13C167.752 62.1064 167.916 62.112 168.076 62.1463C167.464 62.2721 166.844 62.3568 166.22 62.3998L161.161 62.9846C156.889 63.5279 150.995 64.4288 144.596 65.8749C141.583 66.4662 138.668 67.4797 135.938 68.8856C134.765 69.5109 133.686 70.2987 132.733 71.2255C131.922 72.0467 131.241 72.987 130.713 74.0138C129.955 75.5161 129.561 77.176 129.564 78.8589C129.584 80.0349 129.723 80.6987 129.668 80.7004Z" fill="#263238"/>
<path d="M136.471 53.0148C136.471 53.0148 136.49 52.8986 136.693 52.7263C136.937 52.4786 137.203 52.2543 137.489 52.0564C138.534 51.3403 139.726 50.8686 140.978 50.6761C142.863 50.4161 144.781 50.5565 146.609 51.0882C148.805 51.7494 150.965 52.5247 153.081 53.4111C157.603 55.1899 161.684 56.8186 164.63 58.0291L168.109 59.4918C168.544 59.6498 168.961 59.8544 169.353 60.1021C168.9 60.0081 168.458 59.8721 168.031 59.6959L164.49 58.4074C161.508 57.2885 157.344 55.7001 152.874 53.9302C150.611 53.0513 148.479 52.1075 146.471 51.5862C144.713 51.0416 142.861 50.8643 141.032 51.0652C139.813 51.2151 138.638 51.6129 137.579 52.2342C136.86 52.7001 136.497 53.0518 136.471 53.0148Z" fill="#263238"/>
<path d="M192.288 58.9096C192.288 58.9096 192.05 58.707 191.683 58.3088C191.17 57.7684 190.582 57.3043 189.938 56.9305C188.974 56.4128 187.879 56.1879 186.789 56.2832C185.427 56.3894 184.084 56.6715 182.794 57.1225C180.031 58.0599 177.56 59.1982 175.645 59.6153C174.896 59.8113 174.13 59.9338 173.357 59.981C173.074 60.0231 172.785 60.0079 172.507 59.9362C172.521 59.8517 173.703 59.8 175.545 59.2403C177.386 58.6805 179.79 57.5527 182.622 56.5942C183.955 56.129 185.347 55.8508 186.756 55.7673C187.944 55.6901 189.127 55.9794 190.146 56.5962C190.814 57.0148 191.401 57.551 191.878 58.1787C192.175 58.6085 192.314 58.8815 192.288 58.9096Z" fill="#263238"/>
<path d="M190.66 82.1532C190.96 80.7732 191.116 79.3657 191.125 77.9535C191.076 76.431 190.742 74.9313 190.14 73.5322C189.39 71.8067 188.243 70.2826 186.793 69.0841C184.097 66.9694 181.075 65.3077 177.846 64.164C175.389 63.2093 173.851 62.6692 173.876 62.5864C174.259 62.6217 174.635 62.7067 174.995 62.8392C175.71 63.0459 176.732 63.3585 177.984 63.7963C181.303 64.8487 184.404 66.4942 187.136 68.6531C188.629 69.9011 189.803 71.4861 190.563 73.2774C191.189 74.757 191.513 76.3471 191.516 77.9538C191.522 79.0306 191.371 80.1025 191.069 81.1361C190.986 81.4942 190.848 81.8373 190.66 82.1532Z" fill="#263238"/>
<path d="M131.315 78.1969C131.237 78.0707 131.179 77.9328 131.145 77.7883C130.994 77.413 130.866 77.029 130.762 76.6384C130.381 75.1466 130.164 73.6175 130.115 72.0785C130.016 69.793 130.185 67.5038 130.618 65.2576C131.104 62.4958 132.009 59.8247 133.303 57.3368C134.637 54.8597 136.414 52.648 138.545 50.8109C140.268 49.2981 142.201 48.0424 144.284 47.0827C145.676 46.4471 147.133 45.9634 148.63 45.6399C149.036 45.5377 149.448 45.4581 149.864 45.4017C150.005 45.3719 150.149 45.3596 150.293 45.3651C148.289 45.9134 146.333 46.6239 144.443 47.4895C142.425 48.4831 140.551 49.7469 138.874 51.246C136.813 53.0671 135.089 55.2369 133.782 57.6559C132.518 60.0988 131.615 62.7124 131.102 65.4147C130.657 67.6251 130.454 69.8773 130.497 72.1316C130.512 73.6494 130.669 75.1625 130.966 76.651C131.112 77.1591 131.228 77.6753 131.315 78.1969Z" fill="white"/>
<path d="M140.095 89.0933C140.095 89.0933 140.622 88.997 141.104 89.5555C141.412 89.8927 141.586 90.3314 141.592 90.7882C141.585 91.0756 141.508 91.3569 141.367 91.6077C141.227 91.8585 141.027 92.0712 140.786 92.2274C140.578 92.3833 140.336 92.4874 140.08 92.5314C139.824 92.5753 139.562 92.5577 139.314 92.4801C139.066 92.4025 138.84 92.2671 138.655 92.085C138.469 91.9029 138.33 91.6793 138.248 91.4328C137.994 90.6844 138.352 90.2341 138.44 90.2923C138.528 90.3505 138.363 90.7464 138.653 91.2836C138.808 91.5884 139.07 91.8255 139.389 91.9497C139.576 92.0099 139.775 92.0248 139.969 91.9931C140.163 91.9615 140.346 91.8842 140.505 91.7677C140.674 91.6609 140.816 91.5164 140.92 91.3455C141.024 91.1745 141.087 90.9819 141.104 90.7825C141.119 90.439 141.024 90.0997 140.832 89.814C140.495 89.3014 140.071 89.176 140.095 89.0933Z" fill="#263238"/>
</svg>
