<svg width="113" height="113" viewBox="0 0 113 113" fill="none" xmlns="http://www.w3.org/2000/svg">
<circle cx="56.5" cy="56.5" r="54.5" fill="#55C2DA" stroke="#006FC0" stroke-width="4"/>
<path d="M50.8344 47.951C50.8344 48.385 50.7574 48.707 50.6034 48.917C50.4494 49.127 50.2044 49.33 49.8684 49.526C49.6724 49.638 49.4274 49.75 49.1334 49.862C48.8394 49.96 48.5174 50.044 48.1674 50.114C47.8174 50.198 47.4464 50.261 47.0544 50.303C46.6764 50.345 46.2984 50.366 45.9204 50.366C44.9124 50.366 43.9674 50.233 43.0854 49.967C42.2034 49.687 41.4334 49.274 40.7754 48.728C40.1314 48.168 39.6204 47.475 39.2424 46.649C38.8644 45.823 38.6754 44.864 38.6754 43.772C38.6754 42.624 38.8784 41.623 39.2844 40.769C39.7044 39.915 40.2504 39.208 40.9224 38.648C41.6084 38.074 42.3854 37.647 43.2534 37.367C44.1354 37.087 45.0384 36.947 45.9624 36.947C47.2924 36.947 48.3424 37.164 49.1124 37.598C49.8964 38.018 50.2884 38.571 50.2884 39.257C50.2884 39.621 50.1974 39.936 50.0154 40.202C49.8334 40.468 49.6234 40.678 49.3854 40.832C49.0354 40.622 48.5944 40.419 48.0624 40.223C47.5444 40.013 46.9564 39.908 46.2984 39.908C45.1224 39.908 44.1844 40.244 43.4844 40.916C42.7984 41.588 42.4554 42.519 42.4554 43.709C42.4554 44.353 42.5464 44.913 42.7284 45.389C42.9244 45.851 43.1834 46.236 43.5054 46.544C43.8274 46.838 44.1984 47.062 44.6184 47.216C45.0384 47.356 45.4864 47.426 45.9624 47.426C46.2704 47.426 46.5434 47.398 46.7814 47.342C47.0194 47.286 47.2014 47.223 47.3274 47.153V45.179H45.0804C44.9964 45.025 44.9124 44.822 44.8284 44.57C44.7584 44.318 44.7234 44.052 44.7234 43.772C44.7234 43.268 44.8354 42.904 45.0594 42.68C45.2974 42.456 45.5984 42.344 45.9624 42.344H49.5114C49.9314 42.344 50.2534 42.463 50.4774 42.701C50.7154 42.925 50.8344 43.247 50.8344 43.667V47.951ZM53.2507 39.257C53.2507 38.655 53.4257 38.179 53.7757 37.829C54.1257 37.479 54.6017 37.304 55.2037 37.304H62.1337C62.2317 37.458 62.3157 37.661 62.3857 37.913C62.4697 38.165 62.5117 38.431 62.5117 38.711C62.5117 39.243 62.3927 39.621 62.1547 39.845C61.9307 40.069 61.6297 40.181 61.2517 40.181H56.8207V42.134H61.5457C61.6437 42.288 61.7277 42.491 61.7977 42.743C61.8817 42.981 61.9237 43.24 61.9237 43.52C61.9237 44.052 61.8117 44.43 61.5877 44.654C61.3637 44.878 61.0627 44.99 60.6847 44.99H56.8207V47.195H62.2177C62.3157 47.349 62.3997 47.552 62.4697 47.804C62.5537 48.056 62.5957 48.322 62.5957 48.602C62.5957 49.134 62.4767 49.519 62.2387 49.757C62.0147 49.981 61.7137 50.093 61.3357 50.093H55.2037C54.6017 50.093 54.1257 49.918 53.7757 49.568C53.4257 49.218 53.2507 48.742 53.2507 48.14V39.257ZM64.1676 40.244C64.0696 40.09 63.9786 39.88 63.8946 39.614C63.8106 39.348 63.7686 39.068 63.7686 38.774C63.7686 38.228 63.8876 37.836 64.1256 37.598C64.3776 37.36 64.6996 37.241 65.0916 37.241H74.2476C74.3456 37.395 74.4366 37.605 74.5206 37.871C74.6046 38.137 74.6466 38.417 74.6466 38.711C74.6466 39.257 74.5206 39.649 74.2686 39.887C74.0306 40.125 73.7156 40.244 73.3236 40.244H70.9926V49.946C70.8386 49.988 70.5936 50.03 70.2576 50.072C69.9356 50.114 69.6136 50.135 69.2916 50.135C68.9696 50.135 68.6826 50.107 68.4306 50.051C68.1926 50.009 67.9896 49.925 67.8216 49.799C67.6536 49.673 67.5276 49.498 67.4436 49.274C67.3596 49.05 67.3176 48.756 67.3176 48.392V40.244H64.1676ZM16.9868 68.946C16.8328 68.988 16.5878 69.03 16.2518 69.072C15.9298 69.114 15.6078 69.135 15.2858 69.135C14.9638 69.135 14.6768 69.107 14.4248 69.051C14.1868 69.009 13.9838 68.925 13.8158 68.799C13.6478 68.673 13.5218 68.498 13.4378 68.274C13.3538 68.05 13.3118 67.756 13.3118 67.392V56.304C13.4658 56.276 13.7108 56.241 14.0468 56.199C14.3828 56.143 14.7048 56.115 15.0128 56.115C15.3348 56.115 15.6148 56.143 15.8528 56.199C16.1048 56.241 16.3148 56.325 16.4828 56.451C16.6508 56.577 16.7768 56.752 16.8608 56.976C16.9448 57.2 16.9868 57.494 16.9868 57.858V68.946ZM31.2392 68.589C31.0432 68.785 30.7562 68.932 30.3782 69.03C30.0142 69.142 29.5732 69.198 29.0552 69.198C28.5372 69.198 28.0472 69.121 27.5852 68.967C27.1232 68.813 26.7452 68.442 26.4512 67.854L24.3722 63.612C24.1622 63.178 23.9732 62.772 23.8052 62.394C23.6372 62.002 23.4552 61.554 23.2592 61.05L23.1332 61.071C23.1892 61.827 23.2172 62.597 23.2172 63.381C23.2312 64.165 23.2382 64.935 23.2382 65.691V68.946C23.0842 68.988 22.8462 69.03 22.5242 69.072C22.2162 69.114 21.9082 69.135 21.6002 69.135C21.2922 69.135 21.0192 69.114 20.7812 69.072C20.5432 69.03 20.3472 68.946 20.1932 68.82C20.0392 68.694 19.9202 68.526 19.8362 68.316C19.7522 68.092 19.7102 67.805 19.7102 67.455V56.955C19.9062 56.675 20.2072 56.465 20.6132 56.325C21.0192 56.185 21.4532 56.115 21.9152 56.115C22.4332 56.115 22.9232 56.199 23.3852 56.367C23.8612 56.521 24.2392 56.885 24.5192 57.459L26.6192 61.701C26.8292 62.135 27.0182 62.548 27.1862 62.94C27.3542 63.318 27.5362 63.759 27.7322 64.263L27.8372 64.242C27.7812 63.486 27.7462 62.73 27.7322 61.974C27.7182 61.218 27.7112 60.462 27.7112 59.706V56.304C27.8652 56.262 28.0962 56.22 28.4042 56.178C28.7262 56.136 29.0412 56.115 29.3492 56.115C29.9652 56.115 30.4342 56.227 30.7562 56.451C31.0782 56.661 31.2392 57.109 31.2392 57.795V68.589ZM37.5751 63.969C36.9591 63.759 36.3991 63.549 35.8951 63.339C35.3911 63.115 34.9571 62.849 34.5931 62.541C34.2291 62.233 33.9421 61.869 33.7321 61.449C33.5361 61.015 33.4381 60.49 33.4381 59.874C33.4381 58.684 33.8931 57.732 34.8031 57.018C35.7271 56.304 37.0151 55.947 38.6671 55.947C39.2691 55.947 39.8291 55.989 40.3471 56.073C40.8651 56.157 41.3061 56.29 41.6701 56.472C42.0481 56.64 42.3421 56.864 42.5521 57.144C42.7621 57.41 42.8671 57.725 42.8671 58.089C42.8671 58.453 42.7831 58.768 42.6151 59.034C42.4471 59.286 42.2441 59.503 42.0061 59.685C41.6981 59.489 41.2851 59.321 40.7671 59.181C40.2491 59.027 39.6821 58.95 39.0661 58.95C38.4361 58.95 37.9741 59.041 37.6801 59.223C37.3861 59.391 37.2391 59.608 37.2391 59.874C37.2391 60.084 37.3301 60.259 37.5121 60.399C37.6941 60.525 37.9671 60.644 38.3311 60.756L39.4441 61.113C40.7601 61.533 41.7681 62.072 42.4681 62.73C43.1821 63.374 43.5391 64.256 43.5391 65.376C43.5391 66.566 43.0701 67.532 42.1321 68.274C41.1941 69.002 39.8151 69.366 37.9951 69.366C37.3511 69.366 36.7491 69.31 36.1891 69.198C35.6431 69.1 35.1601 68.953 34.7401 68.757C34.3341 68.547 34.0121 68.295 33.7741 68.001C33.5501 67.693 33.4381 67.343 33.4381 66.951C33.4381 66.545 33.5571 66.202 33.7951 65.922C34.0331 65.628 34.2921 65.404 34.5721 65.25C34.9641 65.558 35.4401 65.824 36.0001 66.048C36.5741 66.272 37.1971 66.384 37.8691 66.384C38.5551 66.384 39.0381 66.279 39.3181 66.069C39.5981 65.859 39.7381 65.614 39.7381 65.334C39.7381 65.054 39.6261 64.844 39.4021 64.704C39.1781 64.55 38.8631 64.403 38.4571 64.263L37.5751 63.969ZM50.2965 62.205C50.8845 62.205 51.3325 62.072 51.6405 61.806C51.9625 61.526 52.1235 61.106 52.1235 60.546C52.1235 60.014 51.9555 59.608 51.6195 59.328C51.2975 59.034 50.8215 58.887 50.1915 58.887C49.9675 58.887 49.7785 58.894 49.6245 58.908C49.4845 58.908 49.3375 58.922 49.1835 58.95V62.205H50.2965ZM49.2045 68.946C49.0505 68.988 48.8055 69.03 48.4695 69.072C48.1475 69.114 47.8255 69.135 47.5035 69.135C47.1815 69.135 46.8945 69.107 46.6425 69.051C46.4045 69.009 46.2015 68.925 46.0335 68.799C45.8655 68.673 45.7395 68.498 45.6555 68.274C45.5715 68.05 45.5295 67.756 45.5295 67.392V57.501C45.5295 57.207 45.6065 56.983 45.7605 56.829C45.9285 56.661 46.1525 56.528 46.4325 56.43C46.9085 56.262 47.4475 56.143 48.0495 56.073C48.6655 55.989 49.2815 55.947 49.8975 55.947C51.8295 55.947 53.3065 56.36 54.3285 57.186C55.3505 58.012 55.8615 59.132 55.8615 60.546C55.8615 61.232 55.7495 61.855 55.5255 62.415C55.3155 62.961 54.9935 63.437 54.5595 63.843C54.1395 64.235 53.6005 64.543 52.9425 64.767C52.2985 64.977 51.5495 65.082 50.6955 65.082H49.2045V68.946ZM61.4067 68.946C61.2527 68.988 61.0077 69.03 60.6717 69.072C60.3497 69.114 60.0277 69.135 59.7057 69.135C59.3837 69.135 59.0967 69.107 58.8447 69.051C58.6067 69.009 58.4037 68.925 58.2357 68.799C58.0677 68.673 57.9417 68.498 57.8577 68.274C57.7737 68.05 57.7317 67.756 57.7317 67.392V56.304C57.8857 56.276 58.1307 56.241 58.4667 56.199C58.8027 56.143 59.1247 56.115 59.4327 56.115C59.7547 56.115 60.0347 56.143 60.2727 56.199C60.5247 56.241 60.7347 56.325 60.9027 56.451C61.0707 56.577 61.1967 56.752 61.2807 56.976C61.3647 57.2 61.4067 57.494 61.4067 57.858V68.946ZM67.7841 64.914V68.946C67.6301 68.988 67.3851 69.03 67.0491 69.072C66.7271 69.114 66.4051 69.135 66.0831 69.135C65.7611 69.135 65.4741 69.107 65.2221 69.051C64.9841 69.009 64.7811 68.925 64.6131 68.799C64.4591 68.673 64.3401 68.498 64.2561 68.274C64.1721 68.05 64.1301 67.756 64.1301 67.392V57.501C64.1301 57.207 64.2071 56.983 64.3611 56.829C64.5291 56.661 64.7531 56.528 65.0331 56.43C65.5091 56.262 66.0621 56.143 66.6921 56.073C67.3221 55.989 67.9941 55.947 68.7081 55.947C70.6401 55.947 72.0961 56.353 73.0761 57.165C74.0561 57.977 74.5461 59.076 74.5461 60.462C74.5461 61.33 74.3221 62.072 73.8741 62.688C73.4261 63.304 72.8941 63.78 72.2781 64.116C72.7821 64.802 73.2791 65.446 73.7691 66.048C74.2591 66.65 74.6441 67.196 74.9241 67.686C74.7841 68.176 74.5251 68.554 74.1471 68.82C73.7831 69.072 73.3701 69.198 72.9081 69.198C72.6001 69.198 72.3341 69.163 72.1101 69.093C71.8861 69.023 71.6901 68.925 71.5221 68.799C71.3541 68.673 71.2001 68.519 71.0601 68.337C70.9201 68.155 70.7871 67.959 70.6611 67.749L68.8971 64.914H67.7841ZM69.1071 62.121C69.6391 62.121 70.0591 61.988 70.3671 61.722C70.6751 61.442 70.8291 61.036 70.8291 60.504C70.8291 59.972 70.6541 59.573 70.3041 59.307C69.9681 59.027 69.4291 58.887 68.6871 58.887C68.4771 58.887 68.3091 58.894 68.1831 58.908C68.0571 58.922 67.9171 58.943 67.7631 58.971V62.121H69.1071ZM76.927 58.257C76.927 57.655 77.102 57.179 77.452 56.829C77.802 56.479 78.278 56.304 78.88 56.304H85.81C85.908 56.458 85.992 56.661 86.062 56.913C86.146 57.165 86.188 57.431 86.188 57.711C86.188 58.243 86.069 58.621 85.831 58.845C85.607 59.069 85.306 59.181 84.928 59.181H80.497V61.134H85.222C85.32 61.288 85.404 61.491 85.474 61.743C85.558 61.981 85.6 62.24 85.6 62.52C85.6 63.052 85.488 63.43 85.264 63.654C85.04 63.878 84.739 63.99 84.361 63.99H80.497V66.195H85.894C85.992 66.349 86.076 66.552 86.146 66.804C86.23 67.056 86.272 67.322 86.272 67.602C86.272 68.134 86.153 68.519 85.915 68.757C85.691 68.981 85.39 69.093 85.012 69.093H78.88C78.278 69.093 77.802 68.918 77.452 68.568C77.102 68.218 76.927 67.742 76.927 67.14V58.257ZM92.0859 66.3C92.2399 66.328 92.4289 66.356 92.6529 66.384C92.8769 66.398 93.0869 66.405 93.2829 66.405C93.7589 66.405 94.1929 66.335 94.5849 66.195C94.9909 66.055 95.3339 65.838 95.6139 65.544C95.9079 65.25 96.1319 64.872 96.2859 64.41C96.4539 63.934 96.5379 63.367 96.5379 62.709C96.5379 61.449 96.2439 60.504 95.6559 59.874C95.0679 59.23 94.2839 58.908 93.3039 58.908C93.1079 58.908 92.9049 58.915 92.6949 58.929C92.4989 58.943 92.2959 58.964 92.0859 58.992V66.3ZM93.2619 69.366C93.0239 69.366 92.7509 69.359 92.4429 69.345C92.1349 69.331 91.8129 69.303 91.4769 69.261C91.1549 69.219 90.8259 69.163 90.4899 69.093C90.1679 69.037 89.8669 68.953 89.5869 68.841C88.8169 68.547 88.4319 68.036 88.4319 67.308V57.501C88.4319 57.207 88.5089 56.983 88.6629 56.829C88.8309 56.661 89.0549 56.528 89.3349 56.43C89.9369 56.234 90.5739 56.108 91.2459 56.052C91.9179 55.982 92.5199 55.947 93.0519 55.947C94.1439 55.947 95.1309 56.08 96.0129 56.346C96.9089 56.612 97.6719 57.025 98.3019 57.585C98.9459 58.131 99.4429 58.824 99.7929 59.664C100.143 60.504 100.318 61.498 100.318 62.646C100.318 63.766 100.15 64.746 99.8139 65.586C99.4779 66.412 98.9949 67.112 98.3649 67.686C97.7489 68.246 97.0069 68.666 96.1389 68.946C95.2709 69.226 94.3119 69.366 93.2619 69.366Z" fill="white"/>
<g opacity="0.2">
<path d="M77.8051 60.0819C76.4142 62.2134 74.7306 64.1277 72.8076 65.7643C69.1353 69.0962 64.4401 70.9775 59.572 71.0676C51.3721 71.0621 43.2835 66.219 36.564 61.9374C33.455 59.9509 30.5971 57.5946 27.4306 55.7181C24.3519 53.9248 21.1291 52.4034 17.7963 51.17C16.5724 50.7148 15.3547 50.2871 14.125 49.8566C15.1518 48.7666 16.3959 47.919 17.7695 47.3737C22.6549 47.3362 40.5813 54.471 45.1897 53.7616C46.5891 53.4812 47.9469 53.0059 49.2256 52.349C52.7764 50.5808 56.207 48.5631 59.4927 46.3106L60.0792 45.9363C60.4279 46.0416 60.7677 46.175 61.0955 46.3354C63.5146 47.4212 66.632 49.8004 69.5132 52.299C73.9198 56.0346 77.8051 60.0819 77.8051 60.0819Z" fill="white"/>
<path d="M60.6025 79.4404C51.1146 79.6808 48.1304 76.4413 48.3559 75.323C48.5815 74.2048 51.3239 73.8376 51.3239 73.8376C52.117 72.3904 53.2987 71.2068 54.7256 70.4307C55.1637 70.1512 55.4997 70.0101 55.4997 70.0101C55.4997 70.0101 63.0519 68.7212 64.3097 69.1129C64.7601 69.3162 65.156 69.6273 65.4648 70.0205C66.3376 71.0749 67.1227 72.2034 67.8118 73.3942C67.8118 73.3942 70.6204 73.6029 71.1719 74.5291C71.7234 75.4552 70.1041 79.2229 60.6025 79.4404Z" fill="white"/>
<path d="M62.9331 43.3817C62.5474 44.4788 61.9058 45.464 61.0652 46.2499C60.823 46.5011 60.5671 46.7378 60.2988 46.959C60.0007 46.7386 59.7209 46.4932 59.4623 46.2252C58.2714 45.1617 57.5087 43.6786 57.3206 42.0604C57.1893 39.1899 58.9458 35.429 60.0454 35.3141C61.1449 35.1991 63.5028 41.4992 62.9331 43.3817Z" fill="white"/>
<path d="M79.7851 46.3202C75.9187 47.6561 76.0305 59.5277 76.0305 59.5277C76.0305 59.5277 74.7843 63.1305 77.7887 60.0714C80.793 57.0124 95.5364 54.1726 95.3418 48.3567C95.1473 42.5409 83.6544 44.972 79.7851 46.3202ZM77.4115 58.6464C77.4115 58.6464 77.798 48.9711 80.6631 48.1905C83.5281 47.4098 91.7977 46.3965 92.4103 48.9913C93.0229 51.586 78.7592 56.9693 77.4115 58.6464Z" fill="white"/>
<path d="M67.8105 73.4265C65.333 74.3471 62.7275 74.834 60.1027 74.867C57.1381 74.9663 54.1795 74.6322 51.3152 73.8746C52.1083 72.4274 53.29 71.2438 54.7169 70.4677C56.1293 70.5512 62.1201 70.8558 65.3951 70.0754L65.4323 70.0517C66.3159 71.1053 67.1114 72.2341 67.8105 73.4265Z" fill="white"/>
<path d="M69.5009 52.2439C60.5908 55.4679 52.3665 53.2362 49.2133 52.294C52.7642 50.5257 56.1947 48.5081 59.4804 46.2556C58.2894 45.1921 57.5268 43.709 57.3387 42.0908C57.2074 39.2203 58.9639 35.4594 60.0634 35.3444C61.163 35.2294 63.5163 41.522 62.9512 43.4121C62.5654 44.5092 61.9239 45.4943 61.0833 46.2803C63.5023 47.3662 66.5975 49.7596 69.5009 52.2439Z" fill="white"/>
</g>
</svg>
