<svg width="126" height="126" viewBox="0 0 126 126" fill="none" xmlns="http://www.w3.org/2000/svg">
<circle cx="63" cy="63" r="61" fill="#5ADBB5" stroke="white" stroke-width="4"/>
<path d="M24.589 52.175C25.177 52.175 25.625 52.042 25.933 51.776C26.255 51.496 26.416 51.076 26.416 50.516C26.416 49.984 26.248 49.578 25.912 49.298C25.59 49.004 25.114 48.857 24.484 48.857C24.26 48.857 24.071 48.864 23.917 48.878C23.777 48.878 23.63 48.892 23.476 48.92V52.175H24.589ZM23.497 58.916C23.343 58.958 23.098 59 22.762 59.042C22.44 59.084 22.118 59.105 21.796 59.105C21.474 59.105 21.187 59.077 20.935 59.021C20.697 58.979 20.494 58.895 20.326 58.769C20.158 58.643 20.032 58.468 19.948 58.244C19.864 58.02 19.822 57.726 19.822 57.362V47.471C19.822 47.177 19.899 46.953 20.053 46.799C20.221 46.631 20.445 46.498 20.725 46.4C21.201 46.232 21.74 46.113 22.342 46.043C22.958 45.959 23.574 45.917 24.19 45.917C26.122 45.917 27.599 46.33 28.621 47.156C29.643 47.982 30.154 49.102 30.154 50.516C30.154 51.202 30.042 51.825 29.818 52.385C29.608 52.931 29.286 53.407 28.852 53.813C28.432 54.205 27.893 54.513 27.235 54.737C26.591 54.947 25.842 55.052 24.988 55.052H23.497V58.916ZM32.0242 48.227C32.0242 47.625 32.1992 47.149 32.5492 46.799C32.8992 46.449 33.3752 46.274 33.9772 46.274H40.9072C41.0052 46.428 41.0892 46.631 41.1592 46.883C41.2432 47.135 41.2852 47.401 41.2852 47.681C41.2852 48.213 41.1662 48.591 40.9282 48.815C40.7042 49.039 40.4032 49.151 40.0252 49.151H35.5942V51.104H40.3192C40.4172 51.258 40.5012 51.461 40.5712 51.713C40.6552 51.951 40.6972 52.21 40.6972 52.49C40.6972 53.022 40.5852 53.4 40.3612 53.624C40.1372 53.848 39.8362 53.96 39.4582 53.96H35.5942V56.165H40.9912C41.0892 56.319 41.1732 56.522 41.2432 56.774C41.3272 57.026 41.3692 57.292 41.3692 57.572C41.3692 58.104 41.2502 58.489 41.0122 58.727C40.7882 58.951 40.4872 59.063 40.1092 59.063H33.9772C33.3752 59.063 32.8992 58.888 32.5492 58.538C32.1992 58.188 32.0242 57.712 32.0242 57.11V48.227ZM42.776 52.616C42.776 51.524 42.944 50.558 43.28 49.718C43.63 48.878 44.099 48.178 44.687 47.618C45.289 47.044 45.989 46.61 46.787 46.316C47.599 46.022 48.474 45.875 49.412 45.875C50.35 45.875 51.218 46.022 52.016 46.316C52.828 46.61 53.535 47.044 54.137 47.618C54.739 48.178 55.208 48.878 55.544 49.718C55.894 50.558 56.069 51.524 56.069 52.616C56.069 53.708 55.901 54.681 55.565 55.535C55.229 56.375 54.76 57.082 54.158 57.656C53.57 58.216 52.87 58.643 52.058 58.937C51.246 59.231 50.364 59.378 49.412 59.378C48.46 59.378 47.578 59.231 46.766 58.937C45.954 58.629 45.254 58.188 44.666 57.614C44.078 57.04 43.616 56.333 43.28 55.493C42.944 54.653 42.776 53.694 42.776 52.616ZM46.556 52.616C46.556 53.89 46.815 54.842 47.333 55.472C47.851 56.102 48.544 56.417 49.412 56.417C50.294 56.417 50.994 56.102 51.512 55.472C52.03 54.842 52.289 53.89 52.289 52.616C52.289 51.356 52.03 50.411 51.512 49.781C51.008 49.151 50.315 48.836 49.433 48.836C48.565 48.836 47.865 49.151 47.333 49.781C46.815 50.397 46.556 51.342 46.556 52.616ZM62.9386 52.175C63.5266 52.175 63.9746 52.042 64.2826 51.776C64.6046 51.496 64.7656 51.076 64.7656 50.516C64.7656 49.984 64.5976 49.578 64.2616 49.298C63.9396 49.004 63.4636 48.857 62.8336 48.857C62.6096 48.857 62.4206 48.864 62.2666 48.878C62.1266 48.878 61.9796 48.892 61.8256 48.92V52.175H62.9386ZM61.8466 58.916C61.6926 58.958 61.4476 59 61.1116 59.042C60.7896 59.084 60.4676 59.105 60.1456 59.105C59.8236 59.105 59.5366 59.077 59.2846 59.021C59.0466 58.979 58.8436 58.895 58.6756 58.769C58.5076 58.643 58.3816 58.468 58.2976 58.244C58.2136 58.02 58.1716 57.726 58.1716 57.362V47.471C58.1716 47.177 58.2486 46.953 58.4026 46.799C58.5706 46.631 58.7946 46.498 59.0746 46.4C59.5506 46.232 60.0896 46.113 60.6916 46.043C61.3076 45.959 61.9236 45.917 62.5396 45.917C64.4716 45.917 65.9486 46.33 66.9706 47.156C67.9926 47.982 68.5036 49.102 68.5036 50.516C68.5036 51.202 68.3916 51.825 68.1676 52.385C67.9576 52.931 67.6356 53.407 67.2016 53.813C66.7816 54.205 66.2426 54.513 65.5846 54.737C64.9406 54.947 64.1916 55.052 63.3376 55.052H61.8466V58.916ZM72.3268 59.063C71.7248 59.063 71.2488 58.888 70.8988 58.538C70.5488 58.188 70.3738 57.712 70.3738 57.11V46.253C70.5278 46.225 70.7728 46.19 71.1088 46.148C71.4448 46.092 71.7668 46.064 72.0748 46.064C72.3968 46.064 72.6768 46.092 72.9148 46.148C73.1668 46.19 73.3768 46.274 73.5448 46.4C73.7128 46.526 73.8388 46.701 73.9228 46.925C74.0068 47.149 74.0488 47.443 74.0488 47.807V56.102H78.8578C78.9558 56.256 79.0468 56.466 79.1308 56.732C79.2148 56.984 79.2568 57.25 79.2568 57.53C79.2568 58.09 79.1378 58.489 78.8998 58.727C78.6618 58.951 78.3468 59.063 77.9548 59.063H72.3268ZM81.1404 48.227C81.1404 47.625 81.3154 47.149 81.6654 46.799C82.0154 46.449 82.4914 46.274 83.0934 46.274H90.0234C90.1214 46.428 90.2054 46.631 90.2754 46.883C90.3594 47.135 90.4014 47.401 90.4014 47.681C90.4014 48.213 90.2824 48.591 90.0444 48.815C89.8204 49.039 89.5194 49.151 89.1414 49.151H84.7104V51.104H89.4354C89.5334 51.258 89.6174 51.461 89.6874 51.713C89.7714 51.951 89.8134 52.21 89.8134 52.49C89.8134 53.022 89.7014 53.4 89.4774 53.624C89.2534 53.848 88.9524 53.96 88.5744 53.96H84.7104V56.165H90.1074C90.2054 56.319 90.2894 56.522 90.3594 56.774C90.4434 57.026 90.4854 57.292 90.4854 57.572C90.4854 58.104 90.3664 58.489 90.1284 58.727C89.9044 58.951 89.6034 59.063 89.2254 59.063H83.0934C82.4914 59.063 82.0154 58.888 81.6654 58.538C81.3154 58.188 81.1404 57.712 81.1404 57.11V48.227ZM94.4723 50.138C94.3183 50.376 94.1363 50.551 93.9263 50.663C93.7163 50.775 93.4503 50.831 93.1283 50.831C92.8623 50.831 92.6173 50.803 92.3933 50.747C92.1693 50.691 91.9523 50.614 91.7423 50.516C91.8123 49.662 91.8823 48.808 91.9523 47.954C92.0223 47.1 92.0713 46.309 92.0993 45.581C92.2953 45.469 92.5473 45.364 92.8553 45.266C93.1773 45.168 93.4853 45.119 93.7793 45.119C94.0033 45.119 94.2203 45.14 94.4303 45.182C94.6543 45.224 94.8503 45.301 95.0183 45.413C95.1863 45.511 95.3193 45.651 95.4173 45.833C95.5153 46.001 95.5643 46.211 95.5643 46.463C95.5643 46.743 95.5363 47.051 95.4803 47.387C95.4243 47.723 95.3403 48.059 95.2283 48.395C95.1303 48.731 95.0113 49.053 94.8713 49.361C94.7453 49.669 94.6123 49.928 94.4723 50.138ZM100.954 53.939C100.338 53.729 99.7776 53.519 99.2736 53.309C98.7696 53.085 98.3356 52.819 97.9716 52.511C97.6076 52.203 97.3206 51.839 97.1106 51.419C96.9146 50.985 96.8166 50.46 96.8166 49.844C96.8166 48.654 97.2716 47.702 98.1816 46.988C99.1056 46.274 100.394 45.917 102.046 45.917C102.648 45.917 103.208 45.959 103.726 46.043C104.244 46.127 104.685 46.26 105.049 46.442C105.427 46.61 105.721 46.834 105.931 47.114C106.141 47.38 106.246 47.695 106.246 48.059C106.246 48.423 106.162 48.738 105.994 49.004C105.826 49.256 105.623 49.473 105.385 49.655C105.077 49.459 104.664 49.291 104.146 49.151C103.628 48.997 103.061 48.92 102.445 48.92C101.815 48.92 101.353 49.011 101.059 49.193C100.765 49.361 100.618 49.578 100.618 49.844C100.618 50.054 100.709 50.229 100.891 50.369C101.073 50.495 101.346 50.614 101.71 50.726L102.823 51.083C104.139 51.503 105.147 52.042 105.847 52.7C106.561 53.344 106.918 54.226 106.918 55.346C106.918 56.536 106.449 57.502 105.511 58.244C104.573 58.972 103.194 59.336 101.374 59.336C100.73 59.336 100.128 59.28 99.5676 59.168C99.0216 59.07 98.5386 58.923 98.1186 58.727C97.7126 58.517 97.3906 58.265 97.1526 57.971C96.9286 57.663 96.8166 57.313 96.8166 56.921C96.8166 56.515 96.9356 56.172 97.1736 55.892C97.4116 55.598 97.6706 55.374 97.9506 55.22C98.3426 55.528 98.8186 55.794 99.3786 56.018C99.9526 56.242 100.576 56.354 101.248 56.354C101.934 56.354 102.417 56.249 102.697 56.039C102.977 55.829 103.117 55.584 103.117 55.304C103.117 55.024 103.005 54.814 102.781 54.674C102.557 54.52 102.242 54.373 101.836 54.233L100.954 53.939ZM28.0083 75.27C28.1623 75.298 28.3513 75.326 28.5753 75.354C28.7993 75.368 29.0093 75.375 29.2053 75.375C29.6813 75.375 30.1153 75.305 30.5073 75.165C30.9133 75.025 31.2563 74.808 31.5363 74.514C31.8303 74.22 32.0543 73.842 32.2083 73.38C32.3763 72.904 32.4603 72.337 32.4603 71.679C32.4603 70.419 32.1663 69.474 31.5783 68.844C30.9903 68.2 30.2063 67.878 29.2263 67.878C29.0303 67.878 28.8273 67.885 28.6173 67.899C28.4213 67.913 28.2183 67.934 28.0083 67.962V75.27ZM29.1843 78.336C28.9463 78.336 28.6733 78.329 28.3653 78.315C28.0573 78.301 27.7353 78.273 27.3993 78.231C27.0773 78.189 26.7483 78.133 26.4123 78.063C26.0903 78.007 25.7893 77.923 25.5093 77.811C24.7393 77.517 24.3543 77.006 24.3543 76.278V66.471C24.3543 66.177 24.4313 65.953 24.5853 65.799C24.7533 65.631 24.9773 65.498 25.2573 65.4C25.8593 65.204 26.4963 65.078 27.1683 65.022C27.8403 64.952 28.4423 64.917 28.9743 64.917C30.0663 64.917 31.0533 65.05 31.9353 65.316C32.8313 65.582 33.5943 65.995 34.2243 66.555C34.8683 67.101 35.3653 67.794 35.7153 68.634C36.0653 69.474 36.2403 70.468 36.2403 71.616C36.2403 72.736 36.0723 73.716 35.7363 74.556C35.4003 75.382 34.9173 76.082 34.2873 76.656C33.6713 77.216 32.9293 77.636 32.0613 77.916C31.1933 78.196 30.2343 78.336 29.1843 78.336ZM41.9946 73.884V77.916C41.8406 77.958 41.5956 78 41.2596 78.042C40.9376 78.084 40.6156 78.105 40.2936 78.105C39.9716 78.105 39.6846 78.077 39.4326 78.021C39.1946 77.979 38.9916 77.895 38.8236 77.769C38.6696 77.643 38.5506 77.468 38.4666 77.244C38.3826 77.02 38.3406 76.726 38.3406 76.362V66.471C38.3406 66.177 38.4176 65.953 38.5716 65.799C38.7396 65.631 38.9636 65.498 39.2436 65.4C39.7196 65.232 40.2726 65.113 40.9026 65.043C41.5326 64.959 42.2046 64.917 42.9186 64.917C44.8506 64.917 46.3066 65.323 47.2866 66.135C48.2666 66.947 48.7566 68.046 48.7566 69.432C48.7566 70.3 48.5326 71.042 48.0846 71.658C47.6366 72.274 47.1046 72.75 46.4886 73.086C46.9926 73.772 47.4896 74.416 47.9796 75.018C48.4696 75.62 48.8546 76.166 49.1346 76.656C48.9946 77.146 48.7356 77.524 48.3576 77.79C47.9936 78.042 47.5806 78.168 47.1186 78.168C46.8106 78.168 46.5446 78.133 46.3206 78.063C46.0966 77.993 45.9006 77.895 45.7326 77.769C45.5646 77.643 45.4106 77.489 45.2706 77.307C45.1306 77.125 44.9976 76.929 44.8716 76.719L43.1076 73.884H41.9946ZM43.3176 71.091C43.8496 71.091 44.2696 70.958 44.5776 70.692C44.8856 70.412 45.0396 70.006 45.0396 69.474C45.0396 68.942 44.8646 68.543 44.5146 68.277C44.1786 67.997 43.6396 67.857 42.8976 67.857C42.6876 67.857 42.5196 67.864 42.3936 67.878C42.2676 67.892 42.1276 67.913 41.9736 67.941V71.091H43.3176ZM51.1375 67.227C51.1375 66.625 51.3125 66.149 51.6625 65.799C52.0125 65.449 52.4885 65.274 53.0905 65.274H60.0205C60.1185 65.428 60.2025 65.631 60.2725 65.883C60.3565 66.135 60.3985 66.401 60.3985 66.681C60.3985 67.213 60.2795 67.591 60.0415 67.815C59.8175 68.039 59.5165 68.151 59.1385 68.151H54.7075V70.104H59.4325C59.5305 70.258 59.6145 70.461 59.6845 70.713C59.7685 70.951 59.8105 71.21 59.8105 71.49C59.8105 72.022 59.6985 72.4 59.4745 72.624C59.2505 72.848 58.9495 72.96 58.5715 72.96H54.7075V75.165H60.1045C60.2025 75.319 60.2865 75.522 60.3565 75.774C60.4405 76.026 60.4825 76.292 60.4825 76.572C60.4825 77.104 60.3635 77.489 60.1255 77.727C59.9015 77.951 59.6005 78.063 59.2225 78.063H53.0905C52.4885 78.063 52.0125 77.888 51.6625 77.538C51.3125 77.188 51.1375 76.712 51.1375 76.11V67.227ZM65.6179 65.652C65.8559 65.512 66.2129 65.379 66.6889 65.253C67.1789 65.127 67.6689 65.064 68.1589 65.064C68.8589 65.064 69.4749 65.169 70.0069 65.379C70.5529 65.575 70.9029 65.89 71.0569 66.324C71.3089 67.052 71.5819 67.899 71.8759 68.865C72.1699 69.831 72.4639 70.832 72.7579 71.868C73.0519 72.89 73.3389 73.905 73.6189 74.913C73.8989 75.907 74.1439 76.789 74.3539 77.559C74.1859 77.755 73.9339 77.909 73.5979 78.021C73.2619 78.147 72.8629 78.21 72.4009 78.21C72.0649 78.21 71.7779 78.182 71.5399 78.126C71.3159 78.07 71.1269 77.986 70.9729 77.874C70.8329 77.762 70.7139 77.615 70.6159 77.433C70.5319 77.251 70.4549 77.041 70.3849 76.803L70.0069 75.354H66.2059C66.0939 75.774 65.9819 76.208 65.8699 76.656C65.7579 77.104 65.6459 77.538 65.5339 77.958C65.3379 78.028 65.1279 78.084 64.9039 78.126C64.6939 78.182 64.4349 78.21 64.1269 78.21C63.4129 78.21 62.8809 78.091 62.5309 77.853C62.1949 77.601 62.0269 77.258 62.0269 76.824C62.0269 76.628 62.0549 76.432 62.1109 76.236C62.1669 76.04 62.2299 75.809 62.2999 75.543C62.3979 75.165 62.5309 74.696 62.6989 74.136C62.8809 73.576 63.0769 72.974 63.2869 72.33C63.4969 71.672 63.7209 71 63.9589 70.314C64.1969 69.628 64.4209 68.984 64.6309 68.382C64.8409 67.766 65.0299 67.22 65.1979 66.744C65.3799 66.268 65.5199 65.904 65.6179 65.652ZM68.1379 68.361C67.9419 68.949 67.7179 69.607 67.4659 70.335C67.2279 71.049 67.0109 71.777 66.8149 72.519H69.4189C69.2229 71.763 69.0199 71.028 68.8099 70.314C68.6139 69.586 68.4319 68.935 68.2639 68.361H68.1379ZM84.874 74.871C84.692 75.025 84.454 75.151 84.16 75.249C83.88 75.333 83.551 75.375 83.173 75.375C82.669 75.375 82.249 75.312 81.913 75.186C81.591 75.06 81.381 74.843 81.283 74.535C80.891 73.303 80.569 72.309 80.317 71.553C80.065 70.783 79.869 70.111 79.729 69.537H79.624C79.582 70.363 79.547 71.119 79.519 71.805C79.505 72.477 79.491 73.135 79.477 73.779C79.477 74.423 79.463 75.074 79.435 75.732C79.421 76.39 79.393 77.118 79.351 77.916C79.169 77.986 78.931 78.042 78.637 78.084C78.343 78.14 78.049 78.168 77.755 78.168C77.139 78.168 76.656 78.07 76.306 77.874C75.97 77.678 75.802 77.321 75.802 76.803L76.411 66.093C76.523 65.911 76.768 65.715 77.146 65.505C77.524 65.295 78.056 65.19 78.742 65.19C79.484 65.19 80.065 65.309 80.485 65.547C80.905 65.771 81.213 66.142 81.409 66.66C81.535 66.996 81.668 67.381 81.808 67.815C81.962 68.249 82.109 68.697 82.249 69.159C82.403 69.621 82.55 70.083 82.69 70.545C82.83 70.993 82.956 71.399 83.068 71.763H83.173C83.509 70.587 83.845 69.453 84.181 68.361C84.517 67.255 84.825 66.331 85.105 65.589C85.315 65.477 85.581 65.386 85.903 65.316C86.239 65.232 86.61 65.19 87.016 65.19C87.702 65.19 88.262 65.295 88.696 65.505C89.13 65.701 89.382 65.988 89.452 66.366C89.508 66.646 89.564 67.08 89.62 67.668C89.69 68.242 89.76 68.893 89.83 69.621C89.9 70.349 89.97 71.119 90.04 71.931C90.11 72.743 90.173 73.527 90.229 74.283C90.299 75.025 90.355 75.711 90.397 76.341C90.439 76.957 90.467 77.433 90.481 77.769C90.243 77.909 89.991 78.007 89.725 78.063C89.473 78.133 89.144 78.168 88.738 78.168C88.206 78.168 87.758 78.077 87.394 77.895C87.03 77.713 86.834 77.356 86.806 76.824C86.722 75.298 86.666 73.926 86.638 72.708C86.624 71.49 86.596 70.468 86.554 69.642H86.449C86.309 70.188 86.106 70.874 85.84 71.7C85.574 72.526 85.252 73.583 84.874 74.871ZM96.4213 72.939C95.8053 72.729 95.2453 72.519 94.7413 72.309C94.2373 72.085 93.8033 71.819 93.4393 71.511C93.0753 71.203 92.7883 70.839 92.5783 70.419C92.3823 69.985 92.2843 69.46 92.2843 68.844C92.2843 67.654 92.7393 66.702 93.6493 65.988C94.5733 65.274 95.8613 64.917 97.5133 64.917C98.1153 64.917 98.6753 64.959 99.1933 65.043C99.7113 65.127 100.152 65.26 100.516 65.442C100.894 65.61 101.188 65.834 101.398 66.114C101.608 66.38 101.713 66.695 101.713 67.059C101.713 67.423 101.629 67.738 101.461 68.004C101.293 68.256 101.09 68.473 100.852 68.655C100.544 68.459 100.131 68.291 99.6133 68.151C99.0953 67.997 98.5283 67.92 97.9123 67.92C97.2823 67.92 96.8203 68.011 96.5263 68.193C96.2323 68.361 96.0853 68.578 96.0853 68.844C96.0853 69.054 96.1763 69.229 96.3583 69.369C96.5403 69.495 96.8133 69.614 97.1773 69.726L98.2903 70.083C99.6063 70.503 100.614 71.042 101.314 71.7C102.028 72.344 102.385 73.226 102.385 74.346C102.385 75.536 101.916 76.502 100.978 77.244C100.04 77.972 98.6613 78.336 96.8413 78.336C96.1973 78.336 95.5953 78.28 95.0353 78.168C94.4893 78.07 94.0063 77.923 93.5863 77.727C93.1803 77.517 92.8583 77.265 92.6203 76.971C92.3963 76.663 92.2843 76.313 92.2843 75.921C92.2843 75.515 92.4033 75.172 92.6413 74.892C92.8793 74.598 93.1383 74.374 93.4183 74.22C93.8103 74.528 94.2863 74.794 94.8463 75.018C95.4203 75.242 96.0433 75.354 96.7153 75.354C97.4013 75.354 97.8843 75.249 98.1643 75.039C98.4443 74.829 98.5843 74.584 98.5843 74.304C98.5843 74.024 98.4723 73.814 98.2483 73.674C98.0243 73.52 97.7093 73.373 97.3033 73.233L96.4213 72.939Z" fill="white"/>
<g opacity="0.2">
<path d="M86.7562 66.994C85.2052 69.3707 83.3279 71.5052 81.1837 73.3302C77.0889 77.0454 71.8536 79.1431 66.4254 79.2435C57.2822 79.2374 48.263 73.8371 40.7705 69.063C37.3038 66.8479 34.1171 64.2206 30.5864 62.1282C27.1535 60.1286 23.5599 58.4321 19.8437 57.0568C18.479 56.5492 17.1212 56.0723 15.75 55.5923C16.895 54.3769 18.2822 53.4318 19.8138 52.8238C25.2612 52.7819 45.25 60.7375 50.3885 59.9466C51.9489 59.6339 53.4629 59.1039 54.8887 58.3715C58.8481 56.3998 62.6733 54.15 66.337 51.6383L66.991 51.221C67.3798 51.3384 67.7587 51.4872 68.1242 51.666C70.8216 52.8767 74.2977 55.5296 77.5103 58.3157C82.4239 62.481 86.7562 66.994 86.7562 66.994Z" fill="white"/>
<path d="M67.5745 88.5796C56.995 88.8476 53.6675 85.2354 53.919 83.9885C54.1705 82.7417 57.2284 82.3322 57.2284 82.3322C58.1127 80.7185 59.4304 79.3988 61.0215 78.5334C61.5099 78.2217 61.8846 78.0643 61.8846 78.0643C61.8846 78.0643 70.3056 76.6272 71.7081 77.0639C72.2103 77.2907 72.6518 77.6375 72.9962 78.0759C73.9694 79.2517 74.8447 80.51 75.6132 81.8378C75.6132 81.8378 78.7449 82.0705 79.3598 83.1032C79.9747 84.1359 78.1691 88.337 67.5745 88.5796Z" fill="white"/>
<path d="M70.1732 48.3726C69.7431 49.5958 69.0277 50.6943 68.0904 51.5707C67.8203 51.8507 67.535 52.1147 67.2359 52.3613C66.9034 52.1156 66.5915 51.8419 66.3031 51.5431C64.9752 50.3573 64.1248 48.7036 63.915 46.8992C63.7686 43.6985 65.7272 39.505 66.9532 39.3767C68.1793 39.2485 70.8084 46.2734 70.1732 48.3726Z" fill="white"/>
<path d="M88.9639 51.6491C84.6527 53.1387 84.7773 66.376 84.7773 66.376C84.7773 66.376 83.3879 70.3933 86.7378 66.9823C90.0877 63.5713 106.527 60.4048 106.31 53.9199C106.093 47.4349 93.2784 50.1458 88.9639 51.6491ZM86.3172 65.3933C86.3172 65.3933 86.7483 54.605 89.9429 53.7345C93.1376 52.864 102.358 51.7342 103.042 54.6274C103.725 57.5207 87.8199 63.5232 86.3172 65.3933Z" fill="white"/>
<path d="M75.6117 81.8738C72.8492 82.9003 69.9439 83.4432 67.0172 83.48C63.7115 83.5908 60.4125 83.2182 57.2187 82.3735C58.103 80.7597 59.4207 79.44 61.0118 78.5746C62.5867 78.6677 69.2666 79.0074 72.9185 78.1372L72.9599 78.1108C73.9452 79.2855 74.8322 80.5442 75.6117 81.8738Z" fill="white"/>
<path d="M77.4966 58.2543C67.5614 61.8492 58.3909 59.3607 54.875 58.3101C58.8344 56.3384 62.6596 54.0887 66.3233 51.577C64.9953 50.3912 64.1449 48.7375 63.9352 46.9331C63.7888 43.7324 65.7473 39.5388 66.9734 39.4106C68.1994 39.2824 70.8235 46.2988 70.1934 48.4064C69.7632 49.6297 69.0478 50.7282 68.1105 51.6046C70.8079 52.8154 74.2592 55.4841 77.4966 58.2543Z" fill="white"/>
</g>
</svg>
