<svg width="203" height="203" viewBox="0 0 203 203" fill="none" xmlns="http://www.w3.org/2000/svg">
<circle cx="101.5" cy="101.5" r="99.5" fill="#FFBD03" stroke="#38C5FF" stroke-width="4"/>
<g opacity="0.2">
<path d="M147.635 106.084C144.695 110.436 141.136 114.344 137.072 117.686C129.31 124.488 119.386 128.329 109.097 128.513C91.7659 128.502 74.6697 118.614 60.4675 109.872C53.8963 105.817 47.8558 101.006 41.1632 97.1748C34.6561 93.5135 27.8443 90.4073 20.8001 87.889C18.2133 86.9597 15.6395 86.0866 13.0404 85.2076C15.2107 82.9822 17.8402 81.2518 20.7435 80.1384C31.0692 80.0618 68.9585 94.6286 78.6987 93.1804C81.6565 92.6078 84.5263 91.6374 87.229 90.2963C94.7341 86.6861 101.985 82.5668 108.929 77.9679L110.169 77.2037C110.906 77.4187 111.624 77.6911 112.317 78.0185C117.43 80.2354 124.019 85.0929 130.109 90.1941C139.423 97.8208 147.635 106.084 147.635 106.084Z" fill="#407BFF"/>
<path d="M111.275 145.607C91.2215 146.098 84.9141 139.484 85.3909 137.201C85.8676 134.918 91.664 134.169 91.664 134.169C93.3401 131.214 95.8379 128.797 98.8538 127.213C99.7796 126.642 100.49 126.354 100.49 126.354C100.49 126.354 116.452 123.723 119.111 124.522C120.063 124.937 120.899 125.573 121.552 126.375C123.397 128.528 125.056 130.832 126.513 133.263C126.513 133.263 132.449 133.689 133.615 135.58C134.78 137.471 131.358 145.163 111.275 145.607Z" fill="#407BFF"/>
<path d="M116.201 71.9883C115.386 74.2281 114.03 76.2394 112.253 77.8442C111.741 78.3569 111.2 78.8402 110.633 79.2917C110.003 78.8418 109.412 78.3407 108.865 77.7936C106.348 75.6224 104.736 72.5944 104.339 69.2906C104.061 63.4301 107.774 55.7517 110.098 55.5169C112.422 55.2821 117.405 68.1448 116.201 71.9883Z" fill="#407BFF"/>
<path d="M151.82 77.9877C143.648 80.7151 143.884 104.953 143.884 104.953C143.884 104.953 141.25 112.308 147.6 106.063C153.95 99.8172 185.111 94.0194 184.7 82.1455C184.289 70.2715 159.998 75.2351 151.82 77.9877ZM146.803 103.153C146.803 103.153 147.62 83.3999 153.675 81.806C159.731 80.2122 177.209 78.1434 178.504 83.441C179.799 88.7386 149.651 99.7292 146.803 103.153Z" fill="#407BFF"/>
<path d="M126.51 133.329C121.274 135.209 115.767 136.203 110.219 136.27C103.953 136.473 97.6994 135.791 91.6456 134.244C93.3218 131.289 95.8195 128.873 98.8354 127.288C101.821 127.459 114.483 128.081 121.405 126.487L121.483 126.439C123.351 128.59 125.032 130.895 126.51 133.329Z" fill="black"/>
<path d="M130.083 90.0818C111.25 96.664 93.8675 92.1076 87.203 90.184C94.7081 86.5738 101.959 82.4546 108.904 77.8556C106.386 75.6845 104.774 72.6564 104.377 69.3526C104.099 63.4921 107.812 55.8137 110.136 55.5789C112.46 55.3441 117.434 68.1913 116.239 72.0503C115.424 74.2901 114.068 76.3015 112.291 77.9062C117.404 80.1231 123.946 85.0096 130.083 90.0818Z" fill="black"/>
</g>
<path d="M47.3433 71.36C46.1699 70.96 45.1033 70.56 44.1433 70.16C43.1833 69.7333 42.3566 69.2267 41.6633 68.64C40.9699 68.0533 40.4233 67.36 40.0233 66.56C39.6499 65.7333 39.4633 64.7333 39.4633 63.56C39.4633 61.2933 40.3299 59.48 42.0633 58.12C43.8233 56.76 46.2766 56.08 49.4233 56.08C50.5699 56.08 51.6366 56.16 52.6233 56.32C53.6099 56.48 54.4499 56.7333 55.1433 57.08C55.8633 57.4 56.4233 57.8267 56.8233 58.36C57.2233 58.8667 57.4233 59.4667 57.4233 60.16C57.4233 60.8533 57.2633 61.4533 56.9433 61.96C56.6233 62.44 56.2366 62.8533 55.7833 63.2C55.1966 62.8267 54.4099 62.5067 53.4233 62.24C52.4366 61.9467 51.3566 61.8 50.1833 61.8C48.9833 61.8 48.1033 61.9733 47.5433 62.32C46.9833 62.64 46.7033 63.0533 46.7033 63.56C46.7033 63.96 46.8766 64.2933 47.2233 64.56C47.5699 64.8 48.0899 65.0267 48.7833 65.24L50.9033 65.92C53.4099 66.72 55.3299 67.7467 56.6633 69C58.0233 70.2267 58.7033 71.9067 58.7033 74.04C58.7033 76.3067 57.8099 78.1467 56.0233 79.56C54.2366 80.9467 51.6099 81.64 48.1433 81.64C46.9166 81.64 45.7699 81.5333 44.7033 81.32C43.6633 81.1333 42.7433 80.8533 41.9433 80.48C41.1699 80.08 40.5566 79.6 40.1033 79.04C39.6766 78.4533 39.4633 77.7867 39.4633 77.04C39.4633 76.2667 39.6899 75.6133 40.1433 75.08C40.5966 74.52 41.0899 74.0933 41.6233 73.8C42.3699 74.3867 43.2766 74.8933 44.3433 75.32C45.4366 75.7467 46.6233 75.96 47.9033 75.96C49.2099 75.96 50.1299 75.76 50.6633 75.36C51.1966 74.96 51.4633 74.4933 51.4633 73.96C51.4633 73.4267 51.2499 73.0267 50.8233 72.76C50.3966 72.4667 49.7966 72.1867 49.0233 71.92L47.3433 71.36ZM85.5745 80.84C85.2812 80.92 84.8145 81 84.1745 81.08C83.5612 81.16 82.9479 81.2 82.3345 81.2C81.7212 81.2 81.1745 81.1467 80.6945 81.04C80.2412 80.96 79.8545 80.8 79.5345 80.56C79.2145 80.32 78.9745 79.9867 78.8145 79.56C78.6545 79.1333 78.5745 78.5733 78.5745 77.88V71.64H70.8945V80.84C70.6012 80.92 70.1345 81 69.4945 81.08C68.8812 81.16 68.2679 81.2 67.6545 81.2C67.0412 81.2 66.4945 81.1467 66.0145 81.04C65.5612 80.96 65.1745 80.8 64.8545 80.56C64.5345 80.32 64.2945 79.9867 64.1345 79.56C63.9745 79.1333 63.8945 78.5733 63.8945 77.88V56.76C64.1879 56.7067 64.6545 56.64 65.2945 56.56C65.9345 56.4533 66.5479 56.4 67.1345 56.4C67.7479 56.4 68.2812 56.4533 68.7345 56.56C69.2145 56.64 69.6145 56.8 69.9345 57.04C70.2545 57.28 70.4945 57.6133 70.6545 58.04C70.8145 58.4667 70.8945 59.0267 70.8945 59.72V66.12H78.5745V56.76C78.8679 56.7067 79.3345 56.64 79.9745 56.56C80.6145 56.4533 81.2279 56.4 81.8145 56.4C82.4279 56.4 82.9612 56.4533 83.4145 56.56C83.8945 56.64 84.2945 56.8 84.6145 57.04C84.9345 57.28 85.1745 57.6133 85.3345 58.04C85.4945 58.4667 85.5745 59.0267 85.5745 59.72V80.84ZM97.3295 57.48C97.7829 57.2133 98.4629 56.96 99.3695 56.72C100.303 56.48 101.236 56.36 102.17 56.36C103.503 56.36 104.676 56.56 105.69 56.96C106.73 57.3333 107.396 57.9333 107.69 58.76C108.17 60.1467 108.69 61.76 109.25 63.6C109.81 65.44 110.37 67.3467 110.93 69.32C111.49 71.2667 112.036 73.2 112.57 75.12C113.103 77.0133 113.57 78.6933 113.97 80.16C113.65 80.5333 113.17 80.8267 112.53 81.04C111.89 81.28 111.13 81.4 110.25 81.4C109.61 81.4 109.063 81.3467 108.61 81.24C108.183 81.1333 107.823 80.9733 107.53 80.76C107.263 80.5467 107.036 80.2667 106.85 79.92C106.69 79.5733 106.543 79.1733 106.41 78.72L105.69 75.96H98.4495C98.2362 76.76 98.0229 77.5867 97.8095 78.44C97.5962 79.2933 97.3829 80.12 97.1695 80.92C96.7962 81.0533 96.3962 81.16 95.9695 81.24C95.5695 81.3467 95.0762 81.4 94.4895 81.4C93.1295 81.4 92.1162 81.1733 91.4495 80.72C90.8095 80.24 90.4895 79.5867 90.4895 78.76C90.4895 78.3867 90.5429 78.0133 90.6495 77.64C90.7562 77.2667 90.8762 76.8267 91.0095 76.32C91.1962 75.6 91.4495 74.7067 91.7695 73.64C92.1162 72.5733 92.4895 71.4267 92.8895 70.2C93.2895 68.9467 93.7162 67.6667 94.1695 66.36C94.6229 65.0533 95.0495 63.8267 95.4495 62.68C95.8495 61.5067 96.2095 60.4667 96.5295 59.56C96.8762 58.6533 97.1429 57.96 97.3295 57.48ZM102.13 62.64C101.756 63.76 101.33 65.0133 100.85 66.4C100.396 67.76 99.9829 69.1467 99.6095 70.56H104.57C104.196 69.12 103.81 67.72 103.41 66.36C103.036 64.9733 102.69 63.7333 102.37 62.64H102.13ZM125.608 73.16V80.84C125.314 80.92 124.848 81 124.208 81.08C123.594 81.16 122.981 81.2 122.368 81.2C121.754 81.2 121.208 81.1467 120.728 81.04C120.274 80.96 119.888 80.8 119.568 80.56C119.274 80.32 119.048 79.9867 118.888 79.56C118.728 79.1333 118.648 78.5733 118.648 77.88V59.04C118.648 58.48 118.794 58.0533 119.088 57.76C119.408 57.44 119.834 57.1867 120.368 57C121.274 56.68 122.328 56.4533 123.528 56.32C124.728 56.16 126.008 56.08 127.368 56.08C131.048 56.08 133.821 56.8533 135.688 58.4C137.554 59.9467 138.488 62.04 138.488 64.68C138.488 66.3333 138.061 67.7467 137.208 68.92C136.354 70.0933 135.341 71 134.168 71.64C135.128 72.9467 136.074 74.1733 137.008 75.32C137.941 76.4667 138.674 77.5067 139.208 78.44C138.941 79.3733 138.448 80.0933 137.728 80.6C137.034 81.08 136.248 81.32 135.368 81.32C134.781 81.32 134.274 81.2533 133.848 81.12C133.421 80.9867 133.048 80.8 132.728 80.56C132.408 80.32 132.114 80.0267 131.848 79.68C131.581 79.3333 131.328 78.96 131.088 78.56L127.728 73.16H125.608ZM128.128 67.84C129.141 67.84 129.941 67.5867 130.528 67.08C131.114 66.5467 131.408 65.7733 131.408 64.76C131.408 63.7467 131.074 62.9867 130.408 62.48C129.768 61.9467 128.741 61.68 127.328 61.68C126.928 61.68 126.608 61.6933 126.368 61.72C126.128 61.7467 125.861 61.7867 125.568 61.84V67.84H128.128ZM144.423 60.48C144.423 59.3333 144.756 58.4267 145.423 57.76C146.089 57.0933 146.996 56.76 148.143 56.76H161.343C161.529 57.0533 161.689 57.44 161.823 57.92C161.983 58.4 162.063 58.9067 162.063 59.44C162.063 60.4533 161.836 61.1733 161.383 61.6C160.956 62.0267 160.383 62.24 159.663 62.24H151.223V65.96H160.223C160.409 66.2533 160.569 66.64 160.703 67.12C160.863 67.5733 160.943 68.0667 160.943 68.6C160.943 69.6133 160.729 70.3333 160.303 70.76C159.876 71.1867 159.303 71.4 158.583 71.4H151.223V75.6H161.503C161.689 75.8933 161.849 76.28 161.983 76.76C162.143 77.24 162.223 77.7467 162.223 78.28C162.223 79.2933 161.996 80.0267 161.543 80.48C161.116 80.9067 160.543 81.12 159.823 81.12H148.143C146.996 81.12 146.089 80.7867 145.423 80.12C144.756 79.4533 144.423 78.5467 144.423 77.4V60.48ZM63.2973 111.84C63.004 111.92 62.5507 112 61.9373 112.08C61.324 112.16 60.724 112.2 60.1373 112.2C58.9107 112.2 57.9907 112 57.3773 111.6C56.764 111.173 56.4573 110.293 56.4573 108.96V103.56C55.7907 102.573 55.0707 101.48 54.2973 100.28C53.524 99.08 52.764 97.8533 52.0173 96.6C51.2707 95.3467 50.5773 94.12 49.9373 92.92C49.2973 91.6933 48.7773 90.5733 48.3773 89.56C48.724 89.08 49.1907 88.64 49.7773 88.24C50.3907 87.84 51.1373 87.64 52.0173 87.64C53.0573 87.64 53.8973 87.8533 54.5373 88.28C55.204 88.7067 55.8307 89.5067 56.4173 90.68L59.7373 97.36H59.9773C60.3507 96.5333 60.6707 95.7867 60.9373 95.12C61.2307 94.4267 61.5107 93.7467 61.7773 93.08C62.044 92.3867 62.324 91.68 62.6173 90.96C62.9107 90.2133 63.244 89.36 63.6173 88.4C64.0973 88.16 64.6307 87.9733 65.2173 87.84C65.804 87.7067 66.364 87.64 66.8973 87.64C67.8307 87.64 68.6173 87.8933 69.2573 88.4C69.924 88.88 70.2573 89.6133 70.2573 90.6C70.2573 90.92 70.1907 91.3067 70.0573 91.76C69.924 92.2133 69.6173 92.9067 69.1373 93.84C68.6573 94.7467 67.9507 95.9867 67.0173 97.56C66.1107 99.1333 64.8707 101.187 63.2973 103.72V111.84ZM73.1602 99.84C73.1602 97.76 73.4802 95.92 74.1202 94.32C74.7868 92.72 75.6802 91.3867 76.8002 90.32C77.9468 89.2267 79.2802 88.4 80.8002 87.84C82.3468 87.28 84.0135 87 85.8002 87C87.5868 87 89.2402 87.28 90.7602 87.84C92.3068 88.4 93.6535 89.2267 94.8002 90.32C95.9468 91.3867 96.8402 92.72 97.4802 94.32C98.1468 95.92 98.4802 97.76 98.4802 99.84C98.4802 101.92 98.1602 103.773 97.5202 105.4C96.8802 107 95.9868 108.347 94.8402 109.44C93.7202 110.507 92.3868 111.32 90.8402 111.88C89.2935 112.44 87.6135 112.72 85.8002 112.72C83.9868 112.72 82.3068 112.44 80.7602 111.88C79.2135 111.293 77.8802 110.453 76.7602 109.36C75.6402 108.267 74.7602 106.92 74.1202 105.32C73.4802 103.72 73.1602 101.893 73.1602 99.84ZM80.3602 99.84C80.3602 102.267 80.8535 104.08 81.8402 105.28C82.8268 106.48 84.1468 107.08 85.8002 107.08C87.4802 107.08 88.8135 106.48 89.8002 105.28C90.7868 104.08 91.2802 102.267 91.2802 99.84C91.2802 97.44 90.7868 95.64 89.8002 94.44C88.8402 93.24 87.5202 92.64 85.8402 92.64C84.1868 92.64 82.8535 93.24 81.8402 94.44C80.8535 95.6133 80.3602 97.4133 80.3602 99.84ZM125.365 103.04C125.365 104.48 125.112 105.8 124.605 107C124.125 108.173 123.418 109.187 122.485 110.04C121.552 110.867 120.418 111.507 119.085 111.96C117.752 112.413 116.245 112.64 114.565 112.64C112.885 112.64 111.378 112.413 110.045 111.96C108.712 111.507 107.578 110.867 106.645 110.04C105.712 109.187 104.992 108.173 104.485 107C104.005 105.8 103.765 104.48 103.765 103.04V87.76C104.058 87.7067 104.525 87.64 105.165 87.56C105.805 87.4533 106.418 87.4 107.005 87.4C107.618 87.4 108.152 87.4533 108.605 87.56C109.085 87.64 109.485 87.8 109.805 88.04C110.125 88.28 110.365 88.6133 110.525 89.04C110.685 89.4667 110.765 90.0267 110.765 90.72V102.92C110.765 104.2 111.112 105.2 111.805 105.92C112.525 106.64 113.445 107 114.565 107C115.712 107 116.632 106.64 117.325 105.92C118.018 105.2 118.365 104.2 118.365 102.92V87.76C118.658 87.7067 119.125 87.64 119.765 87.56C120.405 87.4533 121.018 87.4 121.605 87.4C122.218 87.4 122.752 87.4533 123.205 87.56C123.685 87.64 124.085 87.8 124.405 88.04C124.725 88.28 124.965 88.6133 125.125 89.04C125.285 89.4667 125.365 90.0267 125.365 90.72V103.04ZM138.808 104.16V111.84C138.514 111.92 138.048 112 137.408 112.08C136.794 112.16 136.181 112.2 135.568 112.2C134.954 112.2 134.408 112.147 133.928 112.04C133.474 111.96 133.088 111.8 132.768 111.56C132.474 111.32 132.248 110.987 132.088 110.56C131.928 110.133 131.848 109.573 131.848 108.88V90.04C131.848 89.48 131.994 89.0533 132.288 88.76C132.608 88.44 133.034 88.1867 133.568 88C134.474 87.68 135.528 87.4533 136.728 87.32C137.928 87.16 139.208 87.08 140.568 87.08C144.248 87.08 147.021 87.8533 148.888 89.4C150.754 90.9467 151.688 93.04 151.688 95.68C151.688 97.3333 151.261 98.7467 150.408 99.92C149.554 101.093 148.541 102 147.368 102.64C148.328 103.947 149.274 105.173 150.208 106.32C151.141 107.467 151.874 108.507 152.408 109.44C152.141 110.373 151.648 111.093 150.928 111.6C150.234 112.08 149.448 112.32 148.568 112.32C147.981 112.32 147.474 112.253 147.048 112.12C146.621 111.987 146.248 111.8 145.928 111.56C145.608 111.32 145.314 111.027 145.048 110.68C144.781 110.333 144.528 109.96 144.288 109.56L140.928 104.16H138.808ZM141.328 98.84C142.341 98.84 143.141 98.5867 143.728 98.08C144.314 97.5467 144.608 96.7733 144.608 95.76C144.608 94.7467 144.274 93.9867 143.608 93.48C142.968 92.9467 141.941 92.68 140.528 92.68C140.128 92.68 139.808 92.6933 139.568 92.72C139.328 92.7467 139.061 92.7867 138.768 92.84V98.84H141.328ZM65.3875 124.68C65.6808 124.547 66.1342 124.4 66.7475 124.24C67.3875 124.053 68.0275 123.96 68.6675 123.96C69.7875 123.96 70.7208 124.133 71.4675 124.48C72.2142 124.8 72.6675 125.28 72.8275 125.92C73.1208 127.013 73.3875 128.04 73.6275 129C73.8942 129.933 74.1475 130.84 74.3875 131.72C74.6275 132.573 74.8542 133.427 75.0675 134.28C75.3075 135.133 75.5342 136.027 75.7475 136.96H75.9475C76.1875 135.333 76.4008 133.787 76.5875 132.32C76.7742 130.827 76.9475 129.373 77.1075 127.96C77.2675 126.52 77.4275 125.107 77.5875 123.72C77.7475 122.307 77.9075 120.88 78.0675 119.44C79.0542 118.88 80.1075 118.6 81.2275 118.6C82.2142 118.6 83.0675 118.813 83.7875 119.24C84.5075 119.667 84.8675 120.387 84.8675 121.4C84.8675 121.987 84.8008 122.827 84.6675 123.92C84.5608 124.987 84.4008 126.187 84.1875 127.52C84.0008 128.853 83.7742 130.253 83.5075 131.72C83.2408 133.187 82.9608 134.587 82.6675 135.92C82.3742 137.253 82.0675 138.467 81.7475 139.56C81.4542 140.627 81.1742 141.453 80.9075 142.04C80.5075 142.413 79.8542 142.72 78.9475 142.96C78.0408 143.2 77.1075 143.32 76.1475 143.32C74.8942 143.32 73.8275 143.16 72.9475 142.84C72.0942 142.493 71.5742 142.013 71.3875 141.4C71.0408 140.333 70.6675 139.067 70.2675 137.6C69.8675 136.133 69.4408 134.52 68.9875 132.76C68.6142 134.493 68.2275 136.187 67.8275 137.84C67.4275 139.493 67.0675 140.893 66.7475 142.04C66.3475 142.413 65.7475 142.72 64.9475 142.96C64.1475 143.2 63.2675 143.32 62.3075 143.32C61.1075 143.32 60.0142 143.16 59.0275 142.84C58.0675 142.493 57.4408 142.013 57.1475 141.4C56.9075 140.92 56.6408 140.213 56.3475 139.28C56.0808 138.32 55.8008 137.24 55.5075 136.04C55.2142 134.813 54.9075 133.493 54.5875 132.08C54.2942 130.667 54.0142 129.253 53.7475 127.84C53.5075 126.427 53.2808 125.053 53.0675 123.72C52.8542 122.36 52.6942 121.12 52.5875 120C52.9608 119.653 53.4808 119.333 54.1475 119.04C54.8142 118.747 55.5342 118.6 56.3075 118.6C57.3208 118.6 58.1475 118.827 58.7875 119.28C59.4542 119.707 59.8675 120.44 60.0275 121.48C60.4542 124.2 60.8008 126.467 61.0675 128.28C61.3608 130.093 61.5875 131.587 61.7475 132.76C61.9342 133.907 62.0675 134.8 62.1475 135.44C62.2275 136.08 62.3075 136.587 62.3875 136.96H62.5875C62.8275 135.893 63.0542 134.907 63.2675 134C63.4808 133.093 63.6942 132.187 63.9075 131.28C64.1475 130.347 64.3875 129.36 64.6275 128.32C64.8675 127.253 65.1208 126.04 65.3875 124.68ZM97.1188 142.84C96.8254 142.92 96.3588 143 95.7188 143.08C95.1054 143.16 94.4921 143.2 93.8788 143.2C93.2654 143.2 92.7188 143.147 92.2388 143.04C91.7854 142.96 91.3988 142.8 91.0788 142.56C90.7588 142.32 90.5188 141.987 90.3588 141.56C90.1988 141.133 90.1188 140.573 90.1188 139.88V118.76C90.4121 118.707 90.8788 118.64 91.5188 118.56C92.1588 118.453 92.7721 118.4 93.3588 118.4C93.9721 118.4 94.5054 118.453 94.9588 118.56C95.4388 118.64 95.8388 118.8 96.1588 119.04C96.4788 119.28 96.7188 119.613 96.8788 120.04C97.0388 120.467 97.1188 121.027 97.1188 121.72V142.84ZM110.586 133.36C109.413 132.96 108.346 132.56 107.386 132.16C106.426 131.733 105.6 131.227 104.906 130.64C104.213 130.053 103.666 129.36 103.266 128.56C102.893 127.733 102.706 126.733 102.706 125.56C102.706 123.293 103.573 121.48 105.306 120.12C107.066 118.76 109.52 118.08 112.666 118.08C113.813 118.08 114.88 118.16 115.866 118.32C116.853 118.48 117.693 118.733 118.386 119.08C119.106 119.4 119.666 119.827 120.066 120.36C120.466 120.867 120.666 121.467 120.666 122.16C120.666 122.853 120.506 123.453 120.186 123.96C119.866 124.44 119.48 124.853 119.026 125.2C118.44 124.827 117.653 124.507 116.666 124.24C115.68 123.947 114.6 123.8 113.426 123.8C112.226 123.8 111.346 123.973 110.786 124.32C110.226 124.64 109.946 125.053 109.946 125.56C109.946 125.96 110.12 126.293 110.466 126.56C110.813 126.8 111.333 127.027 112.026 127.24L114.146 127.92C116.653 128.72 118.573 129.747 119.906 131C121.266 132.227 121.946 133.907 121.946 136.04C121.946 138.307 121.053 140.147 119.266 141.56C117.48 142.947 114.853 143.64 111.386 143.64C110.16 143.64 109.013 143.533 107.946 143.32C106.906 143.133 105.986 142.853 105.186 142.48C104.413 142.08 103.8 141.6 103.346 141.04C102.92 140.453 102.706 139.787 102.706 139.04C102.706 138.267 102.933 137.613 103.386 137.08C103.84 136.52 104.333 136.093 104.866 135.8C105.613 136.387 106.52 136.893 107.586 137.32C108.68 137.747 109.866 137.96 111.146 137.96C112.453 137.96 113.373 137.76 113.906 137.36C114.44 136.96 114.706 136.493 114.706 135.96C114.706 135.427 114.493 135.027 114.066 134.76C113.64 134.467 113.04 134.187 112.266 133.92L110.586 133.36ZM148.818 142.84C148.524 142.92 148.057 143 147.417 143.08C146.804 143.16 146.191 143.2 145.577 143.2C144.964 143.2 144.417 143.147 143.937 143.04C143.484 142.96 143.097 142.8 142.777 142.56C142.457 142.32 142.217 141.987 142.057 141.56C141.897 141.133 141.817 140.573 141.817 139.88V133.64H134.137V142.84C133.844 142.92 133.377 143 132.737 143.08C132.124 143.16 131.511 143.2 130.897 143.2C130.284 143.2 129.737 143.147 129.257 143.04C128.804 142.96 128.417 142.8 128.097 142.56C127.777 142.32 127.537 141.987 127.377 141.56C127.217 141.133 127.137 140.573 127.137 139.88V118.76C127.431 118.707 127.897 118.64 128.537 118.56C129.177 118.453 129.791 118.4 130.377 118.4C130.991 118.4 131.524 118.453 131.977 118.56C132.457 118.64 132.857 118.8 133.177 119.04C133.497 119.28 133.737 119.613 133.897 120.04C134.057 120.467 134.137 121.027 134.137 121.72V128.12H141.817V118.76C142.111 118.707 142.577 118.64 143.217 118.56C143.857 118.453 144.471 118.4 145.057 118.4C145.671 118.4 146.204 118.453 146.657 118.56C147.137 118.64 147.537 118.8 147.857 119.04C148.177 119.28 148.417 119.613 148.577 120.04C148.738 120.467 148.818 121.027 148.818 121.72V142.84Z" fill="white"/>
</svg>
