<svg width="96" height="96" viewBox="0 0 96 96" fill="none" xmlns="http://www.w3.org/2000/svg">
<circle cx="48" cy="48" r="46" fill="#DD7973" stroke="#1EC0EF" stroke-width="4"/>
<path d="M30.4861 34.68C30.3928 34.5333 30.3061 34.3333 30.2261 34.08C30.1461 33.8267 30.1061 33.56 30.1061 33.28C30.1061 32.76 30.2194 32.3867 30.4461 32.16C30.6861 31.9333 30.9928 31.82 31.3661 31.82H40.0861C40.1794 31.9667 40.2661 32.1667 40.3461 32.42C40.4261 32.6733 40.4661 32.94 40.4661 33.22C40.4661 33.74 40.3461 34.1133 40.1061 34.34C39.8794 34.5667 39.5794 34.68 39.2061 34.68H36.9861V43.92C36.8394 43.96 36.6061 44 36.2861 44.04C35.9794 44.08 35.6728 44.1 35.3661 44.1C35.0594 44.1 34.7861 44.0733 34.5461 44.02C34.3194 43.98 34.1261 43.9 33.9661 43.78C33.8061 43.66 33.6861 43.4933 33.6061 43.28C33.5261 43.0667 33.4861 42.7867 33.4861 42.44V34.68H30.4861ZM52.9994 43.92C52.8527 43.96 52.6194 44 52.2994 44.04C51.9927 44.08 51.686 44.1 51.3794 44.1C51.0727 44.1 50.7994 44.0733 50.5594 44.02C50.3327 43.98 50.1394 43.9 49.9794 43.78C49.8194 43.66 49.6994 43.4933 49.6194 43.28C49.5394 43.0667 49.4994 42.7867 49.4994 42.44V39.32H45.6594V43.92C45.5127 43.96 45.2794 44 44.9594 44.04C44.6527 44.08 44.346 44.1 44.0394 44.1C43.7327 44.1 43.4594 44.0733 43.2194 44.02C42.9927 43.98 42.7994 43.9 42.6394 43.78C42.4794 43.66 42.3594 43.4933 42.2794 43.28C42.1994 43.0667 42.1594 42.7867 42.1594 42.44V31.88C42.306 31.8533 42.5394 31.82 42.8594 31.78C43.1794 31.7267 43.486 31.7 43.7794 31.7C44.086 31.7 44.3527 31.7267 44.5794 31.78C44.8194 31.82 45.0194 31.9 45.1794 32.02C45.3394 32.14 45.4594 32.3067 45.5394 32.52C45.6194 32.7333 45.6594 33.0133 45.6594 33.36V36.56H49.4994V31.88C49.646 31.8533 49.8794 31.82 50.1994 31.78C50.5194 31.7267 50.826 31.7 51.1194 31.7C51.426 31.7 51.6927 31.7267 51.9194 31.78C52.1594 31.82 52.3594 31.9 52.5194 32.02C52.6794 32.14 52.7994 32.3067 52.8794 32.52C52.9594 32.7333 52.9994 33.0133 52.9994 33.36V43.92ZM55.5969 33.74C55.5969 33.1667 55.7635 32.7133 56.0969 32.38C56.4302 32.0467 56.8835 31.88 57.4569 31.88H64.0569C64.1502 32.0267 64.2302 32.22 64.2969 32.46C64.3769 32.7 64.4169 32.9533 64.4169 33.22C64.4169 33.7267 64.3035 34.0867 64.0769 34.3C63.8635 34.5133 63.5769 34.62 63.2169 34.62H58.9969V36.48H63.4969C63.5902 36.6267 63.6702 36.82 63.7369 37.06C63.8169 37.2867 63.8569 37.5333 63.8569 37.8C63.8569 38.3067 63.7502 38.6667 63.5369 38.88C63.3235 39.0933 63.0369 39.2 62.6769 39.2H58.9969V41.3H64.1369C64.2302 41.4467 64.3102 41.64 64.3769 41.88C64.4569 42.12 64.4969 42.3733 64.4969 42.64C64.4969 43.1467 64.3835 43.5133 64.1569 43.74C63.9435 43.9533 63.6569 44.06 63.2969 44.06H57.4569C56.8835 44.06 56.4302 43.8933 56.0969 43.56C55.7635 43.2267 55.5969 42.7733 55.5969 42.2V33.74ZM33.3063 52.84C33.4529 52.7733 33.6796 52.7 33.9863 52.62C34.3063 52.5267 34.6263 52.48 34.9463 52.48C35.5063 52.48 35.9729 52.5667 36.3463 52.74C36.7196 52.9 36.9463 53.14 37.0263 53.46C37.1729 54.0067 37.3063 54.52 37.4262 55C37.5596 55.4667 37.6863 55.92 37.8063 56.36C37.9263 56.7867 38.0396 57.2133 38.1463 57.64C38.2663 58.0667 38.3796 58.5133 38.4863 58.98H38.5863C38.7063 58.1667 38.8129 57.3933 38.9062 56.66C38.9996 55.9133 39.0863 55.1867 39.1663 54.48C39.2463 53.76 39.3263 53.0533 39.4063 52.36C39.4863 51.6533 39.5663 50.94 39.6463 50.22C40.1396 49.94 40.6663 49.8 41.2263 49.8C41.7196 49.8 42.1463 49.9067 42.5063 50.12C42.8663 50.3333 43.0463 50.6933 43.0463 51.2C43.0463 51.4933 43.0129 51.9133 42.9463 52.46C42.8929 52.9933 42.8129 53.5933 42.7063 54.26C42.6129 54.9267 42.4996 55.6267 42.3663 56.36C42.2329 57.0933 42.0929 57.7933 41.9463 58.46C41.7996 59.1267 41.6463 59.7333 41.4863 60.28C41.3396 60.8133 41.1996 61.2267 41.0663 61.52C40.8663 61.7067 40.5396 61.86 40.0863 61.98C39.6329 62.1 39.1663 62.16 38.6863 62.16C38.0596 62.16 37.5263 62.08 37.0863 61.92C36.6596 61.7467 36.3996 61.5067 36.3063 61.2C36.1329 60.6667 35.9463 60.0333 35.7463 59.3C35.5463 58.5667 35.3329 57.76 35.1063 56.88C34.9196 57.7467 34.7263 58.5933 34.5263 59.42C34.3263 60.2467 34.1463 60.9467 33.9863 61.52C33.7863 61.7067 33.4863 61.86 33.0863 61.98C32.6863 62.1 32.2463 62.16 31.7663 62.16C31.1663 62.16 30.6196 62.08 30.1263 61.92C29.6463 61.7467 29.3329 61.5067 29.1863 61.2C29.0663 60.96 28.9329 60.6067 28.7863 60.14C28.6529 59.66 28.5129 59.12 28.3663 58.52C28.2196 57.9067 28.0663 57.2467 27.9063 56.54C27.7596 55.8333 27.6196 55.1267 27.4863 54.42C27.3663 53.7133 27.2529 53.0267 27.1463 52.36C27.0396 51.68 26.9596 51.06 26.9063 50.5C27.0929 50.3267 27.3529 50.1667 27.6863 50.02C28.0196 49.8733 28.3796 49.8 28.7663 49.8C29.2729 49.8 29.6863 49.9133 30.0063 50.14C30.3396 50.3533 30.5463 50.72 30.6263 51.24C30.8396 52.6 31.0129 53.7333 31.1463 54.64C31.2929 55.5467 31.4063 56.2933 31.4863 56.88C31.5796 57.4533 31.6463 57.9 31.6862 58.22C31.7263 58.54 31.7663 58.7933 31.8063 58.98H31.9063C32.0263 58.4467 32.1396 57.9533 32.2463 57.5C32.3529 57.0467 32.4596 56.5933 32.5663 56.14C32.6863 55.6733 32.8063 55.18 32.9263 54.66C33.0463 54.1267 33.1729 53.52 33.3063 52.84ZM55.8119 61.92C55.6652 61.96 55.4319 62 55.1119 62.04C54.8052 62.08 54.4985 62.1 54.1919 62.1C53.8852 62.1 53.6119 62.0733 53.3719 62.02C53.1452 61.98 52.9519 61.9 52.7919 61.78C52.6319 61.66 52.5119 61.4933 52.4319 61.28C52.3519 61.0667 52.3119 60.7867 52.3119 60.44V57.32H48.4719V61.92C48.3252 61.96 48.0919 62 47.7719 62.04C47.4652 62.08 47.1585 62.1 46.8519 62.1C46.5452 62.1 46.2719 62.0733 46.0319 62.02C45.8052 61.98 45.6119 61.9 45.4519 61.78C45.2919 61.66 45.1719 61.4933 45.0919 61.28C45.0119 61.0667 44.9719 60.7867 44.9719 60.44V49.88C45.1185 49.8533 45.3519 49.82 45.6719 49.78C45.9919 49.7267 46.2985 49.7 46.5919 49.7C46.8985 49.7 47.1652 49.7267 47.3919 49.78C47.6319 49.82 47.8319 49.9 47.9919 50.02C48.1519 50.14 48.2719 50.3067 48.3519 50.52C48.4319 50.7333 48.4719 51.0133 48.4719 51.36V54.56H52.3119V49.88C52.4585 49.8533 52.6919 49.82 53.0119 49.78C53.3319 49.7267 53.6385 49.7 53.9319 49.7C54.2385 49.7 54.5052 49.7267 54.7319 49.78C54.9719 49.82 55.1719 49.9 55.3319 50.02C55.4919 50.14 55.6119 50.3067 55.6919 50.52C55.7719 50.7333 55.8119 51.0133 55.8119 51.36V61.92ZM64.7694 61.92C64.6227 61.96 64.396 62 64.0894 62.04C63.7827 62.08 63.4827 62.1 63.1894 62.1C62.576 62.1 62.116 62 61.8094 61.8C61.5027 61.5867 61.3494 61.1467 61.3494 60.48V57.78C61.016 57.2867 60.656 56.74 60.2694 56.14C59.8827 55.54 59.5027 54.9267 59.1294 54.3C58.756 53.6733 58.4094 53.06 58.0894 52.46C57.7694 51.8467 57.5094 51.2867 57.3094 50.78C57.4827 50.54 57.716 50.32 58.0094 50.12C58.316 49.92 58.6894 49.82 59.1294 49.82C59.6494 49.82 60.0694 49.9267 60.3894 50.14C60.7227 50.3533 61.036 50.7533 61.3294 51.34L62.9894 54.68H63.1094C63.296 54.2667 63.456 53.8933 63.5894 53.56C63.736 53.2133 63.876 52.8733 64.0094 52.54C64.1427 52.1933 64.2827 51.84 64.4294 51.48C64.576 51.1067 64.7427 50.68 64.9294 50.2C65.1694 50.08 65.436 49.9867 65.7294 49.92C66.0227 49.8533 66.3027 49.82 66.5694 49.82C67.036 49.82 67.4294 49.9467 67.7494 50.2C68.0827 50.44 68.2494 50.8067 68.2494 51.3C68.2494 51.46 68.216 51.6533 68.1494 51.88C68.0827 52.1067 67.9294 52.4533 67.6894 52.92C67.4494 53.3733 67.096 53.9933 66.6294 54.78C66.176 55.5667 65.556 56.5933 64.7694 57.86V61.92Z" fill="white"/>
<g opacity="0.1">
<path d="M66.5318 53.2013C65.3844 54.9397 63.9955 56.501 62.4092 57.8358C59.3798 60.5532 55.5066 62.0875 51.4907 62.161C44.7264 62.1565 38.0538 58.2066 32.5107 54.7146C29.9459 53.0945 27.5884 51.1728 24.9762 49.6423C22.4365 48.1798 19.7779 46.9389 17.0286 45.9329C16.019 45.5617 15.0144 45.2129 14 44.8618C14.8471 43.9728 15.8733 43.2816 17.0065 42.8368C21.0366 42.8062 35.8247 48.6252 39.6263 48.0467C40.7807 47.8179 41.9008 47.4303 42.9556 46.8946C45.8848 45.4524 48.7148 43.8069 51.4253 41.9698L51.9091 41.6645C52.1968 41.7504 52.4771 41.8592 52.7475 41.99C54.7431 42.8756 57.3148 44.816 59.6915 46.8537C63.3267 49.9004 66.5318 53.2013 66.5318 53.2013Z" fill="white"/>
<path d="M52.3408 68.9897C44.5139 69.1857 42.0521 66.5436 42.2382 65.6316C42.4243 64.7196 44.6866 64.4202 44.6866 64.4202C45.3408 63.2398 46.3157 62.2745 47.4928 61.6416C47.8541 61.4136 48.1314 61.2985 48.1314 61.2985C48.1314 61.2985 54.3614 60.2473 55.399 60.5667C55.7705 60.7326 56.0971 60.9863 56.3519 61.307C57.0719 62.1669 57.7195 63.0873 58.288 64.0585C58.288 64.0585 60.6049 64.2287 61.0599 64.9841C61.5148 65.7394 60.179 68.8122 52.3408 68.9897Z" fill="white"/>
<path d="M54.2634 39.5811C53.9452 40.4758 53.4159 41.2793 52.7225 41.9203C52.5227 42.1251 52.3116 42.3182 52.0903 42.4986C51.8444 42.3188 51.6136 42.1187 51.4002 41.9001C50.4178 41.0328 49.7886 39.8232 49.6335 38.5034C49.5252 36.1623 50.9742 33.0951 51.8812 33.0013C52.7883 32.9075 54.7333 38.0457 54.2634 39.5811Z" fill="white"/>
<path d="M68.1652 41.9776C64.9756 43.0671 65.0679 52.7493 65.0679 52.7493C65.0679 52.7493 64.0399 55.6877 66.5182 53.1928C68.9966 50.6979 81.1589 48.3818 80.9984 43.6385C80.8379 38.8953 71.3571 40.8781 68.1652 41.9776ZM66.2071 52.0305C66.2071 52.0305 66.526 44.1397 68.8894 43.503C71.2529 42.8663 78.0747 42.0398 78.5801 44.1561C79.0855 46.2723 67.3188 50.6627 66.2071 52.0305Z" fill="white"/>
<path d="M58.2869 64.0848C56.2432 64.8356 54.0938 65.2328 51.9285 65.2596C49.4829 65.3407 47.0422 65.0682 44.6794 64.4503C45.3336 63.27 46.3085 62.3047 47.4856 61.6717C48.6507 61.7398 53.5927 61.9883 56.2944 61.3518L56.325 61.3325C57.054 62.1917 57.7102 63.1123 58.2869 64.0848Z" fill="white"/>
<path d="M59.6814 46.8089C52.3311 49.4383 45.5466 47.6181 42.9455 46.8497C45.8747 45.4075 48.7047 43.762 51.4151 41.9249C50.4327 41.0576 49.8035 39.848 49.6484 38.5282C49.5401 36.1871 50.9891 33.1198 51.8961 33.026C52.8032 32.9322 54.7445 38.0643 54.2783 39.6059C53.9601 40.5006 53.4308 41.3041 52.7374 41.9451C54.733 42.8307 57.2863 44.7827 59.6814 46.8089Z" fill="white"/>
</g>
</svg>
